<svg width="41" height="40" viewBox="0 0 41 40" fill="none" xmlns="http://www.w3.org/2000/svg">
<path fill-rule="evenodd" clip-rule="evenodd" d="M20 10.1818C21.7253 10.1818 23.4352 10.2483 25.1274 10.3788C27.4235 10.556 29.2342 12.4078 29.4074 14.7561C29.47 15.6048 29.5175 16.4578 29.5497 17.3148L27.1542 14.865C26.7377 14.4389 26.0623 14.4389 25.6458 14.865C25.2292 15.291 25.2292 15.9817 25.6458 16.4078L29.9124 20.7714C30.329 21.1974 31.0044 21.1974 31.4209 20.7714L35.6876 16.4078C36.1041 15.9817 36.1041 15.291 35.6876 14.865C35.271 14.4389 34.5956 14.4389 34.1791 14.865L31.688 17.4127C31.6549 16.4677 31.6036 15.5273 31.5347 14.592C31.2821 11.1682 28.6356 8.46146 25.2878 8.2032C23.5423 8.06854 21.7789 8 20 8C18.2211 8 16.4577 8.06854 14.7122 8.2032C11.3644 8.46146 8.71787 11.1682 8.46535 14.592C8.44137 14.9171 8.41953 15.2429 8.39985 15.5692C8.3636 16.1706 8.81086 16.6881 9.39885 16.7252C9.98684 16.7623 10.4929 16.3049 10.5291 15.7035C10.5482 15.3871 10.5694 15.0713 10.5926 14.7561C10.7658 12.4078 12.5765 10.556 14.8726 10.3788C16.5648 10.2483 18.2747 10.1818 20 10.1818ZM10.0876 19.2286C9.67102 18.8026 8.99565 18.8026 8.57909 19.2286L4.31242 23.5922C3.89586 24.0183 3.89586 24.709 4.31242 25.135C4.72898 25.5611 5.40435 25.5611 5.82092 25.135L8.31198 22.5873C8.34513 23.5323 8.39637 24.4727 8.46535 25.408C8.71787 28.8318 11.3644 31.5385 14.7122 31.7968C16.4577 31.9315 18.2211 32 20 32C21.7789 32 23.5423 31.9315 25.2878 31.7968C28.6356 31.5385 31.2821 28.8318 31.5347 25.408C31.5586 25.0829 31.5805 24.7571 31.6001 24.4308C31.6364 23.8294 31.1891 23.3119 30.6012 23.2748C30.0132 23.2377 29.5071 23.6951 29.4709 24.2965C29.4518 24.6129 29.4306 24.9287 29.4074 25.2439C29.2342 27.5922 27.4235 29.444 25.1274 29.6212C23.4352 29.7517 21.7253 29.8182 20 29.8182C18.2747 29.8182 16.5648 29.7517 14.8726 29.6212C12.5765 29.444 10.7658 27.5922 10.5926 25.2439C10.53 24.3952 10.4825 23.5422 10.4503 22.6852L12.8458 25.135C13.2623 25.5611 13.9377 25.5611 14.3542 25.135C14.7708 24.709 14.7708 24.0183 14.3542 23.5922L10.0876 19.2286Z" fill="url(#paint0_linear_929_2719)"/>
<defs>
<linearGradient id="paint0_linear_929_2719" x1="9.6" y1="-31.9227" x2="15.2377" y2="32.4173" gradientUnits="userSpaceOnUse">
<stop stop-color="#F9BD2F"/>
<stop offset="1" stop-color="#4E4E4E"/>
</linearGradient>
</defs>
</svg>
