<svg width="181" height="33" viewBox="0 0 181 33" fill="none" xmlns="http://www.w3.org/2000/svg">
<path d="M19.15 12.06L26.17 4.5H31.72L21.91 15.12L31.45 25.5H25.99L19 17.97L19.15 12.06Z" fill="white"/>
<path d="M17.5697 17.94L10.5497 25.5L4.99973 25.5L14.8097 14.88L5.26973 4.5L10.7297 4.5L17.7197 12.03L17.5697 17.94Z" fill="#FF6C01"/>
<rect y="4.5" width="5" height="21" fill="#FF6C01"/>
<path d="M40.3567 6.57617H46.8313C48.8235 6.57617 50.5374 6.76172 51.9729 7.13281C53.4084 7.50391 54.6047 8.09961 55.5618 8.91992C56.6555 9.85742 57.4758 10.9316 58.0227 12.1426C58.5793 13.3535 58.8577 14.6768 58.8577 16.1123C58.8577 17.4795 58.6086 18.7637 58.1106 19.9648C57.6223 21.166 56.8997 22.2158 55.9426 23.1143C54.9954 24.0029 53.8186 24.7061 52.4124 25.2236C51.0159 25.7412 49.4143 26 47.6077 26H40.3567V6.57617ZM43.6233 24.5791H47.095C48.1887 24.5791 49.219 24.3984 50.1858 24.0371C51.1526 23.6758 51.9924 23.1387 52.7053 22.4258C53.428 21.7129 53.9944 20.8389 54.4045 19.8037C54.8245 18.7588 55.0344 17.5527 55.0344 16.1855C55.0344 14.9844 54.8391 13.8857 54.4485 12.8896C54.0579 11.8838 53.511 11.0195 52.8079 10.2969C52.1047 9.57422 51.2649 9.0127 50.2883 8.6123C49.3215 8.21191 48.262 8.01172 47.1096 8.01172H43.6233V24.5791ZM67.1809 26.3223C66.0286 26.3223 64.969 26.1221 64.0022 25.7217C63.0354 25.3213 62.2004 24.7793 61.4973 24.0957C60.7942 23.4023 60.2424 22.5967 59.842 21.6787C59.4514 20.751 59.2561 19.7598 59.2561 18.7051C59.2561 17.6016 59.4514 16.5664 59.842 15.5996C60.2424 14.623 60.7942 13.7734 61.4973 13.0508C62.2004 12.3281 63.0354 11.7617 64.0022 11.3516C64.969 10.9316 66.0286 10.7217 67.1809 10.7217C68.3235 10.7217 69.3733 10.9121 70.3303 11.293C71.2971 11.6738 72.1321 12.1963 72.8352 12.8604C73.5383 13.5244 74.0852 14.3057 74.4758 15.2041C74.8762 16.0928 75.0764 17.0498 75.0764 18.0752C75.0764 19.208 74.8762 20.2773 74.4758 21.2832C74.0852 22.2793 73.5383 23.1533 72.8352 23.9053C72.1321 24.6475 71.2971 25.2383 70.3303 25.6777C69.3733 26.1074 68.3235 26.3223 67.1809 26.3223ZM67.7522 25.2236C68.3381 25.2236 68.8752 25.0723 69.3635 24.7695C69.8518 24.4668 70.2717 24.0615 70.6233 23.5537C70.9749 23.0361 71.2483 22.4404 71.4436 21.7666C71.6389 21.0928 71.7366 20.3799 71.7366 19.6279C71.7366 18.5439 71.6438 17.5283 71.4583 16.5811C71.2727 15.6338 70.97 14.8086 70.55 14.1055C70.1301 13.4023 69.5833 12.8506 68.9094 12.4502C68.2356 12.04 67.4153 11.835 66.4485 11.835C65.9504 11.835 65.467 11.9814 64.9983 12.2744C64.5295 12.5576 64.1145 12.9482 63.7532 13.4463C63.4016 13.9443 63.1184 14.5303 62.9036 15.2041C62.6887 15.8682 62.5813 16.5762 62.5813 17.3281C62.5813 18.4219 62.6936 19.4473 62.9182 20.4043C63.1526 21.3613 63.4895 22.1963 63.929 22.9092C64.3782 23.6221 64.9202 24.1885 65.5549 24.6084C66.1995 25.0186 66.9319 25.2236 67.7522 25.2236ZM90.4309 11.791V13.0508H87.5891C87.8723 13.4512 88.1018 13.9102 88.2776 14.4277C88.4631 14.9355 88.5559 15.4385 88.5559 15.9365C88.5559 16.7178 88.385 17.4258 88.0432 18.0605C87.7014 18.6953 87.2229 19.2422 86.6077 19.7012C86.0022 20.1602 85.2747 20.5166 84.425 20.7705C83.5754 21.0146 82.6379 21.1367 81.6125 21.1367C81.2317 21.1367 80.8411 21.1074 80.4407 21.0488C80.05 20.9902 79.7083 20.9121 79.4153 20.8145C79.1321 21.0488 78.8928 21.3223 78.6975 21.6348C78.5022 21.9375 78.4045 22.2451 78.4045 22.5576C78.4045 22.8604 78.5657 23.0996 78.8879 23.2754C79.22 23.4512 79.6887 23.5537 80.2942 23.583L85.8313 23.832C86.72 23.8711 87.4573 23.9785 88.0432 24.1543C88.6389 24.3203 89.1125 24.5498 89.4641 24.8428C89.8157 25.126 90.0647 25.4629 90.2112 25.8535C90.3577 26.2441 90.4309 26.6836 90.4309 27.1719C90.4309 28.041 90.2258 28.8271 89.8157 29.5303C89.4153 30.2432 88.8342 30.8486 88.0725 31.3467C87.3108 31.8447 86.3782 32.2305 85.2747 32.5039C84.1809 32.7773 82.9407 32.9141 81.554 32.9141C80.3137 32.9141 79.2297 32.8408 78.302 32.6943C77.3743 32.5479 76.6028 32.3379 75.9875 32.0645C75.3723 31.8008 74.9133 31.4785 74.6106 31.0977C74.3079 30.7266 74.1565 30.3066 74.1565 29.8379C74.1565 29.4277 74.259 29.0322 74.4641 28.6514C74.6692 28.2803 74.9329 27.9189 75.2551 27.5674C75.5774 27.2256 75.9338 26.8936 76.3245 26.5713C76.7151 26.249 77.1008 25.9414 77.4817 25.6484C77.2083 25.5605 76.9495 25.458 76.7053 25.3408C76.4709 25.2139 76.2659 25.0723 76.0901 24.916C75.9143 24.7598 75.7776 24.5938 75.6799 24.418C75.5823 24.2324 75.5334 24.0371 75.5334 23.832C75.5334 23.5293 75.6116 23.2168 75.7678 22.8945C75.9338 22.5625 76.1536 22.25 76.427 21.957C76.7102 21.6543 77.0325 21.3809 77.3938 21.1367C77.7649 20.8828 78.1604 20.6826 78.5803 20.5361C77.5745 20.1064 76.7834 19.5107 76.2073 18.749C75.6409 17.9775 75.3577 17.0938 75.3577 16.0977C75.3577 15.3652 75.5237 14.6719 75.8557 14.0176C76.1975 13.3633 76.6663 12.792 77.262 12.3037C77.8577 11.8154 78.551 11.4297 79.342 11.1465C80.1428 10.8633 81.0071 10.7217 81.9348 10.7217C82.384 10.7217 82.8235 10.751 83.2532 10.8096C83.6926 10.8682 84.0979 10.9463 84.469 11.0439C84.8499 11.1416 85.1819 11.2539 85.4651 11.3809C85.7581 11.5078 85.9875 11.6445 86.1536 11.791H90.4309ZM78.4045 25.8828C78.1799 26.0488 77.9846 26.2344 77.8186 26.4395C77.6526 26.6445 77.511 26.8594 77.3938 27.084C77.2766 27.3086 77.1887 27.5332 77.1301 27.7578C77.0715 27.9922 77.0422 28.2119 77.0422 28.417C77.0422 28.749 77.1594 29.0664 77.3938 29.3691C77.6282 29.6719 77.9797 29.9404 78.4485 30.1748C78.9172 30.4092 79.5032 30.5947 80.2063 30.7314C80.9192 30.8682 81.7444 30.9365 82.6819 30.9365C83.678 30.9365 84.5667 30.8584 85.3479 30.7021C86.1389 30.5459 86.8079 30.3359 87.3547 30.0723C87.9114 29.8184 88.3313 29.5303 88.6145 29.208C88.9075 28.8955 89.054 28.5781 89.054 28.2559C89.054 27.9238 88.9661 27.6357 88.7903 27.3916C88.6243 27.1475 88.3801 26.9473 88.0579 26.791C87.7356 26.6348 87.345 26.5176 86.886 26.4395C86.427 26.3613 85.9094 26.3223 85.3333 26.3223C84.6106 26.3223 83.8831 26.3027 83.1506 26.2637C82.4182 26.2344 81.7346 26.1953 81.0999 26.1465C80.4651 26.1074 79.9084 26.0586 79.4299 26C78.9514 25.9512 78.6096 25.9121 78.4045 25.8828ZM82.1106 20.3604C82.5305 20.3604 82.9358 20.2676 83.3264 20.082C83.717 19.8867 84.0588 19.623 84.3518 19.291C84.6545 18.959 84.8938 18.5732 85.0696 18.1338C85.2454 17.6846 85.3333 17.2012 85.3333 16.6836C85.3333 15.9512 85.2307 15.2725 85.0256 14.6475C84.8303 14.0127 84.5618 13.4658 84.22 13.0068C83.8782 12.5381 83.4778 12.1719 83.0188 11.9082C82.5598 11.6445 82.0764 11.5127 81.5686 11.5127C81.0706 11.5127 80.636 11.6152 80.2649 11.8203C79.9036 12.0254 79.6057 12.3135 79.3713 12.6846C79.137 13.0459 78.9612 13.4756 78.844 13.9736C78.7366 14.4619 78.6829 14.9893 78.6829 15.5557C78.6829 16.2295 78.7659 16.8594 78.9319 17.4453C79.0979 18.0312 79.3323 18.5439 79.635 18.9834C79.9377 19.4131 80.2991 19.75 80.719 19.9941C81.1389 20.2383 81.6028 20.3604 82.1106 20.3604ZM96.5569 26.3223C95.5413 26.3223 94.5842 26.1318 93.6858 25.751C92.7971 25.3701 92.0208 24.8525 91.3567 24.1982C90.6926 23.5439 90.1653 22.7773 89.7747 21.8984C89.3938 21.0098 89.2034 20.0674 89.2034 19.0713C89.2034 17.8701 89.3792 16.7617 89.7307 15.7461C90.0823 14.7207 90.5803 13.8369 91.2249 13.0947C91.8694 12.3525 92.6409 11.7715 93.5393 11.3516C94.4475 10.9316 95.4583 10.7217 96.5715 10.7217C97.5481 10.7217 98.4465 10.8975 99.2668 11.249C100.087 11.5908 100.79 12.0547 101.376 12.6406C101.972 13.2168 102.431 13.8857 102.753 14.6475C103.085 15.4092 103.251 16.2051 103.251 17.0352H92.0745C92.0745 18.041 92.2014 18.9736 92.4553 19.833C92.719 20.6924 93.0852 21.4346 93.554 22.0596C94.0227 22.6846 94.5793 23.1729 95.2239 23.5244C95.8684 23.876 96.5764 24.0518 97.3479 24.0518C97.9924 24.0518 98.6125 23.9492 99.2083 23.7441C99.804 23.5293 100.341 23.251 100.82 22.9092C101.308 22.5674 101.723 22.1768 102.065 21.7373C102.406 21.2979 102.646 20.8438 102.782 20.375L103.647 20.7559C103.432 21.5273 103.085 22.25 102.607 22.9238C102.128 23.5977 101.567 24.1885 100.922 24.6963C100.287 25.1943 99.594 25.5898 98.842 25.8828C98.0901 26.1758 97.3284 26.3223 96.5569 26.3223ZM99.5159 15.834C99.5159 15.2676 99.4133 14.7402 99.2083 14.252C99.0129 13.7637 98.7395 13.3438 98.3879 12.9922C98.0364 12.6309 97.6262 12.3477 97.1575 12.1426C96.6887 11.9375 96.1858 11.835 95.6487 11.835C95.1995 11.835 94.7698 11.9375 94.3596 12.1426C93.9495 12.3379 93.5833 12.6162 93.261 12.9775C92.9387 13.3291 92.6702 13.749 92.4553 14.2373C92.2502 14.7256 92.1282 15.2529 92.0891 15.8193L99.5159 15.834ZM103.957 26H102.243L110.432 16.4199L102.961 6.57617H106.843L112.483 14.0322L118.84 6.57617H120.569L113.274 15.1016L121.55 26H117.639L111.223 17.4893L103.957 26ZM127.55 6.57617H130.817V24.7402H140.602V26H127.55V6.57617ZM149.848 26C149.457 25.8047 149.125 25.5312 148.852 25.1797C148.588 24.8184 148.456 24.4082 148.456 23.9492C148.105 24.2129 147.758 24.4863 147.416 24.7695C147.084 25.0527 146.718 25.3115 146.318 25.5459C145.927 25.7705 145.488 25.9561 144.999 26.1025C144.521 26.249 143.964 26.3223 143.329 26.3223C142.743 26.3223 142.211 26.2246 141.733 26.0293C141.264 25.8438 140.864 25.585 140.531 25.2529C140.209 24.9209 139.955 24.5254 139.77 24.0664C139.594 23.6074 139.506 23.1143 139.506 22.5869C139.506 21.9424 139.633 21.3613 139.887 20.8438C140.141 20.3262 140.488 19.8672 140.927 19.4668C141.376 19.0566 141.894 18.6953 142.48 18.3828C143.066 18.0605 143.691 17.7773 144.355 17.5332C145.019 17.2793 145.702 17.0547 146.406 16.8594C147.109 16.6641 147.792 16.4834 148.456 16.3174V15.3799C148.456 14.6963 148.407 14.1201 148.31 13.6514C148.212 13.1826 148.061 12.8066 147.856 12.5234C147.651 12.2305 147.387 12.0254 147.065 11.9082C146.752 11.7812 146.376 11.7178 145.937 11.7178C145.517 11.7178 145.131 11.8008 144.78 11.9668C144.428 12.1328 144.115 12.3574 143.842 12.6406C143.578 12.9141 143.359 13.2412 143.183 13.6221C143.017 13.9932 142.905 14.3887 142.846 14.8086H140.121C140.199 14.1641 140.419 13.5879 140.781 13.0801C141.152 12.5723 141.615 12.1475 142.172 11.8057C142.729 11.4541 143.359 11.1855 144.062 11C144.775 10.8145 145.512 10.7217 146.274 10.7217C147.25 10.7217 148.071 10.8193 148.735 11.0146C149.399 11.2002 149.931 11.4639 150.331 11.8057C150.732 12.1475 151.015 12.5674 151.181 13.0654C151.357 13.5537 151.445 14.0957 151.445 14.6914V23.9492C151.445 24.4082 151.576 24.8184 151.84 25.1797C152.114 25.5312 152.446 25.8047 152.836 26H149.848ZM148.456 17.2695C148.027 17.4062 147.582 17.5625 147.123 17.7383C146.664 17.9141 146.215 18.1143 145.776 18.3389C145.336 18.5537 144.916 18.7881 144.516 19.042C144.115 19.2959 143.764 19.5693 143.461 19.8623C143.158 20.1553 142.919 20.4629 142.743 20.7852C142.568 21.1074 142.48 21.4443 142.48 21.7959C142.48 22.167 142.548 22.5186 142.685 22.8506C142.822 23.1729 143.002 23.4609 143.227 23.7148C143.451 23.959 143.71 24.1543 144.003 24.3008C144.296 24.4375 144.599 24.5059 144.911 24.5059C145.243 24.5059 145.561 24.4619 145.864 24.374C146.166 24.2861 146.459 24.1689 146.742 24.0225C147.026 23.8662 147.309 23.6904 147.592 23.4951C147.875 23.2998 148.163 23.0898 148.456 22.8652V17.2695ZM153.279 4.18848L155.388 3.35352H156.267V13.8271C156.511 13.4072 156.828 13.0068 157.219 12.626C157.619 12.2451 158.049 11.918 158.508 11.6445C158.977 11.3613 159.46 11.1367 159.958 10.9707C160.466 10.8047 160.949 10.7217 161.408 10.7217C162.278 10.7217 163.078 10.8975 163.811 11.249C164.543 11.6006 165.173 12.0791 165.7 12.6846C166.228 13.29 166.638 13.998 166.931 14.8086C167.234 15.6094 167.385 16.4688 167.385 17.3867C167.385 18.627 167.165 19.7891 166.726 20.873C166.296 21.957 165.7 22.9043 164.939 23.7148C164.187 24.5156 163.303 25.1504 162.287 25.6191C161.272 26.0879 160.188 26.3223 159.035 26.3223C157.922 26.3223 156.872 26.1758 155.886 25.8828C154.909 25.5898 154.04 25.1455 153.279 24.5498V4.18848ZM156.267 23.5537C156.452 23.7295 156.653 23.9102 156.867 24.0957C157.092 24.2812 157.341 24.4521 157.615 24.6084C157.888 24.7549 158.191 24.877 158.523 24.9746C158.865 25.0625 159.245 25.1064 159.665 25.1064C160.359 25.1064 160.989 24.9404 161.555 24.6084C162.121 24.2666 162.605 23.7979 163.005 23.2021C163.415 22.5967 163.728 21.8838 163.943 21.0635C164.167 20.2334 164.28 19.3301 164.28 18.3535C164.28 17.6113 164.162 16.918 163.928 16.2734C163.703 15.6191 163.391 15.0527 162.99 14.5742C162.6 14.0859 162.136 13.7051 161.599 13.4316C161.072 13.1484 160.505 13.0068 159.9 13.0068C159.558 13.0068 159.206 13.0557 158.845 13.1533C158.493 13.251 158.156 13.3828 157.834 13.5488C157.512 13.7148 157.214 13.9102 156.941 14.1348C156.667 14.3496 156.443 14.584 156.267 14.8379V23.5537ZM173.174 25.2822C173.574 25.2822 173.946 25.2236 174.287 25.1064C174.629 24.9795 174.922 24.8135 175.166 24.6084C175.42 24.4033 175.615 24.1689 175.752 23.9053C175.889 23.6318 175.957 23.3535 175.957 23.0703C175.957 22.6113 175.84 22.2109 175.606 21.8691C175.381 21.5273 175.078 21.2246 174.698 20.9609C174.326 20.6875 173.902 20.4385 173.423 20.2139C172.945 19.9893 172.456 19.7598 171.958 19.5254C171.46 19.2812 170.972 19.0273 170.493 18.7637C170.015 18.4902 169.585 18.1729 169.204 17.8115C168.833 17.4502 168.531 17.0352 168.296 16.5664C168.072 16.0879 167.959 15.5312 167.959 14.8965C167.959 14.3008 168.086 13.749 168.34 13.2412C168.594 12.7236 168.946 12.2793 169.395 11.9082C169.854 11.5371 170.396 11.249 171.021 11.0439C171.646 10.8291 172.329 10.7217 173.072 10.7217C173.57 10.7217 174.033 10.7559 174.463 10.8242C174.893 10.8926 175.313 11.0244 175.723 11.2197C176.143 11.415 176.558 11.6982 176.968 12.0693C177.378 12.4307 177.813 12.9043 178.272 13.4902L177.173 14.4717C176.607 13.5439 175.972 12.8555 175.269 12.4062C174.575 11.9473 173.833 11.7178 173.042 11.7178C172.613 11.7178 172.222 11.7715 171.87 11.8789C171.519 11.9766 171.216 12.1182 170.962 12.3037C170.718 12.4795 170.523 12.6895 170.376 12.9336C170.24 13.1777 170.171 13.4365 170.171 13.71C170.171 14.1592 170.293 14.5498 170.537 14.8818C170.791 15.2139 171.123 15.5166 171.533 15.79C171.944 16.0537 172.407 16.2979 172.925 16.5225C173.452 16.7471 173.985 16.9766 174.522 17.2109C175.069 17.4453 175.601 17.6992 176.118 17.9727C176.646 18.2461 177.115 18.5635 177.525 18.9248C177.935 19.2764 178.262 19.6865 178.506 20.1553C178.76 20.624 178.887 21.1709 178.887 21.7959C178.887 22.4307 178.77 23.0264 178.535 23.583C178.301 24.1299 177.945 24.6084 177.466 25.0186C176.997 25.4189 176.406 25.7363 175.694 25.9707C174.981 26.2051 174.141 26.3223 173.174 26.3223C172.735 26.3223 172.281 26.2881 171.812 26.2197C171.353 26.1514 170.889 26.0195 170.42 25.8242C169.951 25.6191 169.483 25.3359 169.014 24.9746C168.545 24.6133 168.086 24.1396 167.637 23.5537L168.853 22.4551C169.214 22.9629 169.561 23.3975 169.893 23.7588C170.225 24.1104 170.562 24.4033 170.904 24.6377C171.255 24.8623 171.612 25.0283 171.973 25.1357C172.344 25.2334 172.744 25.2822 173.174 25.2822Z" fill="white"/>
</svg>
