<svg width="227" height="33" viewBox="0 0 227 33" fill="none" xmlns="http://www.w3.org/2000/svg">
<path d="M19.15 12.06L26.17 4.5H31.72L21.91 15.12L31.45 25.5H25.99L19 17.97L19.15 12.06Z" fill="white"/>
<path d="M17.5697 17.94L10.5497 25.5L4.99973 25.5L14.8097 14.88L5.26973 4.5L10.7297 4.5L17.7197 12.03L17.5697 17.94Z" fill="#FF6C01"/>
<rect y="4.5" width="5" height="21" fill="#FF6C01"/>
<path d="M40.3567 6.57617H46.8313C48.8235 6.57617 50.5374 6.76172 51.9729 7.13281C53.4085 7.50391 54.6048 8.09961 55.5618 8.91992C56.6555 9.85742 57.4759 10.9316 58.0227 12.1426C58.5794 13.3535 58.8577 14.6768 58.8577 16.1123C58.8577 17.4795 58.6087 18.7637 58.1106 19.9648C57.6223 21.166 56.8997 22.2158 55.9427 23.1143C54.9954 24.0029 53.8186 24.7061 52.4124 25.2236C51.0159 25.7412 49.4143 26 47.6077 26H40.3567V6.57617ZM43.6233 24.5791H47.095C48.1888 24.5791 49.219 24.3984 50.1858 24.0371C51.1526 23.6758 51.9925 23.1387 52.7054 22.4258C53.428 21.7129 53.9944 20.8389 54.4046 19.8037C54.8245 18.7588 55.0345 17.5527 55.0345 16.1855C55.0345 14.9844 54.8391 13.8857 54.4485 12.8896C54.0579 11.8838 53.511 11.0195 52.8079 10.2969C52.1048 9.57422 51.2649 9.0127 50.2884 8.6123C49.3216 8.21191 48.262 8.01172 47.1096 8.01172H43.6233V24.5791ZM67.1809 26.3223C66.0286 26.3223 64.969 26.1221 64.0022 25.7217C63.0354 25.3213 62.2005 24.7793 61.4973 24.0957C60.7942 23.4023 60.2425 22.5967 59.8421 21.6787C59.4514 20.751 59.2561 19.7598 59.2561 18.7051C59.2561 17.6016 59.4514 16.5664 59.8421 15.5996C60.2425 14.623 60.7942 13.7734 61.4973 13.0508C62.2005 12.3281 63.0354 11.7617 64.0022 11.3516C64.969 10.9316 66.0286 10.7217 67.1809 10.7217C68.3235 10.7217 69.3733 10.9121 70.3304 11.293C71.2971 11.6738 72.1321 12.1963 72.8352 12.8604C73.5384 13.5244 74.0852 14.3057 74.4759 15.2041C74.8763 16.0928 75.0764 17.0498 75.0764 18.0752C75.0764 19.208 74.8763 20.2773 74.4759 21.2832C74.0852 22.2793 73.5384 23.1533 72.8352 23.9053C72.1321 24.6475 71.2971 25.2383 70.3304 25.6777C69.3733 26.1074 68.3235 26.3223 67.1809 26.3223ZM67.7522 25.2236C68.3382 25.2236 68.8753 25.0723 69.3636 24.7695C69.8518 24.4668 70.2718 24.0615 70.6233 23.5537C70.9749 23.0361 71.2483 22.4404 71.4436 21.7666C71.6389 21.0928 71.7366 20.3799 71.7366 19.6279C71.7366 18.5439 71.6438 17.5283 71.4583 16.5811C71.2727 15.6338 70.97 14.8086 70.5501 14.1055C70.1302 13.4023 69.5833 12.8506 68.9095 12.4502C68.2356 12.04 67.4153 11.835 66.4485 11.835C65.9505 11.835 65.4671 11.9814 64.9983 12.2744C64.5296 12.5576 64.1145 12.9482 63.7532 13.4463C63.4016 13.9443 63.1184 14.5303 62.9036 15.2041C62.6888 15.8682 62.5813 16.5762 62.5813 17.3281C62.5813 18.4219 62.6936 19.4473 62.9182 20.4043C63.1526 21.3613 63.4895 22.1963 63.929 22.9092C64.3782 23.6221 64.9202 24.1885 65.555 24.6084C66.1995 25.0186 66.9319 25.2236 67.7522 25.2236ZM90.4309 11.791V13.0508H87.5891C87.8723 13.4512 88.1018 13.9102 88.2776 14.4277C88.4632 14.9355 88.5559 15.4385 88.5559 15.9365C88.5559 16.7178 88.385 17.4258 88.0432 18.0605C87.7014 18.6953 87.2229 19.2422 86.6077 19.7012C86.0022 20.1602 85.2747 20.5166 84.4251 20.7705C83.5755 21.0146 82.638 21.1367 81.6126 21.1367C81.2317 21.1367 80.8411 21.1074 80.4407 21.0488C80.0501 20.9902 79.7083 20.9121 79.4153 20.8145C79.1321 21.0488 78.8929 21.3223 78.6975 21.6348C78.5022 21.9375 78.4046 22.2451 78.4046 22.5576C78.4046 22.8604 78.5657 23.0996 78.888 23.2754C79.22 23.4512 79.6888 23.5537 80.2942 23.583L85.8313 23.832C86.72 23.8711 87.4573 23.9785 88.0432 24.1543C88.6389 24.3203 89.1126 24.5498 89.4641 24.8428C89.8157 25.126 90.0647 25.4629 90.2112 25.8535C90.3577 26.2441 90.4309 26.6836 90.4309 27.1719C90.4309 28.041 90.2259 28.8271 89.8157 29.5303C89.4153 30.2432 88.8343 30.8486 88.0725 31.3467C87.3108 31.8447 86.3782 32.2305 85.2747 32.5039C84.1809 32.7773 82.9407 32.9141 81.554 32.9141C80.3138 32.9141 79.2298 32.8408 78.302 32.6943C77.3743 32.5479 76.6028 32.3379 75.9876 32.0645C75.3723 31.8008 74.9134 31.4785 74.6106 31.0977C74.3079 30.7266 74.1565 30.3066 74.1565 29.8379C74.1565 29.4277 74.2591 29.0322 74.4641 28.6514C74.6692 28.2803 74.9329 27.9189 75.2552 27.5674C75.5774 27.2256 75.9339 26.8936 76.3245 26.5713C76.7151 26.249 77.1009 25.9414 77.4817 25.6484C77.2083 25.5605 76.9495 25.458 76.7054 25.3408C76.471 25.2139 76.2659 25.0723 76.0901 24.916C75.9143 24.7598 75.7776 24.5938 75.68 24.418C75.5823 24.2324 75.5335 24.0371 75.5335 23.832C75.5335 23.5293 75.6116 23.2168 75.7679 22.8945C75.9339 22.5625 76.1536 22.25 76.427 21.957C76.7102 21.6543 77.0325 21.3809 77.3938 21.1367C77.7649 20.8828 78.1604 20.6826 78.5804 20.5361C77.5745 20.1064 76.7835 19.5107 76.2073 18.749C75.6409 17.9775 75.3577 17.0938 75.3577 16.0977C75.3577 15.3652 75.5237 14.6719 75.8557 14.0176C76.1975 13.3633 76.6663 12.792 77.262 12.3037C77.8577 11.8154 78.5511 11.4297 79.3421 11.1465C80.1429 10.8633 81.0071 10.7217 81.9348 10.7217C82.3841 10.7217 82.8235 10.751 83.2532 10.8096C83.6927 10.8682 84.0979 10.9463 84.469 11.0439C84.8499 11.1416 85.1819 11.2539 85.4651 11.3809C85.7581 11.5078 85.9876 11.6445 86.1536 11.791H90.4309ZM78.4046 25.8828C78.18 26.0488 77.9846 26.2344 77.8186 26.4395C77.6526 26.6445 77.511 26.8594 77.3938 27.084C77.2766 27.3086 77.1888 27.5332 77.1302 27.7578C77.0716 27.9922 77.0423 28.2119 77.0423 28.417C77.0423 28.749 77.1595 29.0664 77.3938 29.3691C77.6282 29.6719 77.9798 29.9404 78.4485 30.1748C78.9173 30.4092 79.5032 30.5947 80.2063 30.7314C80.9192 30.8682 81.7444 30.9365 82.6819 30.9365C83.678 30.9365 84.5667 30.8584 85.3479 30.7021C86.1389 30.5459 86.8079 30.3359 87.3548 30.0723C87.9114 29.8184 88.3313 29.5303 88.6145 29.208C88.9075 28.8955 89.054 28.5781 89.054 28.2559C89.054 27.9238 88.9661 27.6357 88.7903 27.3916C88.6243 27.1475 88.3802 26.9473 88.0579 26.791C87.7356 26.6348 87.345 26.5176 86.886 26.4395C86.427 26.3613 85.9095 26.3223 85.3333 26.3223C84.6106 26.3223 83.8831 26.3027 83.1507 26.2637C82.4182 26.2344 81.7346 26.1953 81.0999 26.1465C80.4651 26.1074 79.9085 26.0586 79.43 26C78.9514 25.9512 78.6096 25.9121 78.4046 25.8828ZM82.1106 20.3604C82.5305 20.3604 82.9358 20.2676 83.3264 20.082C83.7171 19.8867 84.0589 19.623 84.3518 19.291C84.6546 18.959 84.8938 18.5732 85.0696 18.1338C85.2454 17.6846 85.3333 17.2012 85.3333 16.6836C85.3333 15.9512 85.2307 15.2725 85.0257 14.6475C84.8304 14.0127 84.5618 13.4658 84.22 13.0068C83.8782 12.5381 83.4778 12.1719 83.0188 11.9082C82.5598 11.6445 82.0764 11.5127 81.5686 11.5127C81.0706 11.5127 80.636 11.6152 80.2649 11.8203C79.9036 12.0254 79.6057 12.3135 79.3714 12.6846C79.137 13.0459 78.9612 13.4756 78.844 13.9736C78.7366 14.4619 78.6829 14.9893 78.6829 15.5557C78.6829 16.2295 78.7659 16.8594 78.9319 17.4453C79.0979 18.0312 79.3323 18.5439 79.635 18.9834C79.9378 19.4131 80.2991 19.75 80.719 19.9941C81.1389 20.2383 81.6028 20.3604 82.1106 20.3604ZM96.5569 26.3223C95.5413 26.3223 94.5843 26.1318 93.6858 25.751C92.7971 25.3701 92.0208 24.8525 91.3567 24.1982C90.6927 23.5439 90.1653 22.7773 89.7747 21.8984C89.3938 21.0098 89.2034 20.0674 89.2034 19.0713C89.2034 17.8701 89.3792 16.7617 89.7307 15.7461C90.0823 14.7207 90.5804 13.8369 91.2249 13.0947C91.8694 12.3525 92.6409 11.7715 93.5393 11.3516C94.4475 10.9316 95.4583 10.7217 96.5716 10.7217C97.5481 10.7217 98.4466 10.8975 99.2669 11.249C100.087 11.5908 100.79 12.0547 101.376 12.6406C101.972 13.2168 102.431 13.8857 102.753 14.6475C103.085 15.4092 103.251 16.2051 103.251 17.0352H92.0745C92.0745 18.041 92.2014 18.9736 92.4554 19.833C92.719 20.6924 93.0852 21.4346 93.554 22.0596C94.0227 22.6846 94.5794 23.1729 95.2239 23.5244C95.8684 23.876 96.5764 24.0518 97.3479 24.0518C97.9925 24.0518 98.6126 23.9492 99.2083 23.7441C99.804 23.5293 100.341 23.251 100.82 22.9092C101.308 22.5674 101.723 22.1768 102.065 21.7373C102.407 21.2979 102.646 20.8438 102.783 20.375L103.647 20.7559C103.432 21.5273 103.085 22.25 102.607 22.9238C102.128 23.5977 101.567 24.1885 100.922 24.6963C100.287 25.1943 99.594 25.5898 98.8421 25.8828C98.0901 26.1758 97.3284 26.3223 96.5569 26.3223ZM99.5159 15.834C99.5159 15.2676 99.4134 14.7402 99.2083 14.252C99.013 13.7637 98.7395 13.3438 98.388 12.9922C98.0364 12.6309 97.6263 12.3477 97.1575 12.1426C96.6888 11.9375 96.1858 11.835 95.6487 11.835C95.1995 11.835 94.7698 11.9375 94.3596 12.1426C93.9495 12.3379 93.5833 12.6162 93.261 12.9775C92.9388 13.3291 92.6702 13.749 92.4554 14.2373C92.2503 14.7256 92.1282 15.2529 92.0891 15.8193L99.5159 15.834ZM103.957 26H102.243L110.432 16.4199L102.961 6.57617H106.843L112.483 14.0322L118.84 6.57617H120.569L113.274 15.1016L121.55 26H117.639L111.223 17.4893L103.957 26ZM124.398 6.57617H126.229L138.958 20.7852H139.105V6.57617H140.54V26.4541H139.779L125.994 10.6631H125.877V26H124.398V6.57617ZM149.157 26.3223C148.141 26.3223 147.184 26.1318 146.285 25.751C145.397 25.3701 144.62 24.8525 143.956 24.1982C143.292 23.5439 142.765 22.7773 142.374 21.8984C141.993 21.0098 141.803 20.0674 141.803 19.0713C141.803 17.8701 141.979 16.7617 142.33 15.7461C142.682 14.7207 143.18 13.8369 143.824 13.0947C144.469 12.3525 145.241 11.7715 146.139 11.3516C147.047 10.9316 148.058 10.7217 149.171 10.7217C150.148 10.7217 151.046 10.8975 151.866 11.249C152.687 11.5908 153.39 12.0547 153.976 12.6406C154.572 13.2168 155.031 13.8857 155.353 14.6475C155.685 15.4092 155.851 16.2051 155.851 17.0352H144.674C144.674 18.041 144.801 18.9736 145.055 19.833C145.319 20.6924 145.685 21.4346 146.154 22.0596C146.622 22.6846 147.179 23.1729 147.824 23.5244C148.468 23.876 149.176 24.0518 149.948 24.0518C150.592 24.0518 151.212 23.9492 151.808 23.7441C152.404 23.5293 152.941 23.251 153.419 22.9092C153.908 22.5674 154.323 22.1768 154.664 21.7373C155.006 21.2979 155.245 20.8438 155.382 20.375L156.246 20.7559C156.032 21.5273 155.685 22.25 155.206 22.9238C154.728 23.5977 154.166 24.1885 153.522 24.6963C152.887 25.1943 152.194 25.5898 151.442 25.8828C150.69 26.1758 149.928 26.3223 149.157 26.3223ZM152.116 15.834C152.116 15.2676 152.013 14.7402 151.808 14.252C151.613 13.7637 151.339 13.3438 150.988 12.9922C150.636 12.6309 150.226 12.3477 149.757 12.1426C149.288 11.9375 148.785 11.835 148.248 11.835C147.799 11.835 147.369 11.9375 146.959 12.1426C146.549 12.3379 146.183 12.6162 145.861 12.9775C145.538 13.3291 145.27 13.749 145.055 14.2373C144.85 14.7256 144.728 15.2529 144.689 15.8193L152.116 15.834ZM160.629 5.90234H161.479V11H164.819V12.2744H161.479V22.8359C161.479 23.0605 161.518 23.2705 161.596 23.4658C161.684 23.6611 161.796 23.832 161.933 23.9785C162.079 24.125 162.25 24.2422 162.446 24.3301C162.641 24.4082 162.856 24.4473 163.09 24.4473C163.422 24.4473 163.725 24.3643 163.998 24.1982C164.272 24.0322 164.511 23.8271 164.716 23.583L165.463 24.0811C165.053 24.7744 164.521 25.3213 163.866 25.7217C163.212 26.1221 162.402 26.3223 161.435 26.3223C160.937 26.3223 160.502 26.2344 160.131 26.0586C159.76 25.8926 159.452 25.6582 159.208 25.3555C158.974 25.043 158.798 24.6768 158.681 24.2568C158.564 23.8271 158.505 23.3535 158.505 22.8359V12.2744H155.898V11.7178L158.505 11V6.7373L160.629 5.90234ZM167.18 11L171.926 21.957L176.628 11L181.36 21.957L185.549 11H186.985L180.862 26.1611H179.851L175.661 16.3613L171.457 26.1611H170.534L163.972 11H167.18ZM193.755 26.3223C192.603 26.3223 191.543 26.1221 190.576 25.7217C189.61 25.3213 188.775 24.7793 188.072 24.0957C187.368 23.4023 186.817 22.5967 186.416 21.6787C186.026 20.751 185.83 19.7598 185.83 18.7051C185.83 17.6016 186.026 16.5664 186.416 15.5996C186.817 14.623 187.368 13.7734 188.072 13.0508C188.775 12.3281 189.61 11.7617 190.576 11.3516C191.543 10.9316 192.603 10.7217 193.755 10.7217C194.898 10.7217 195.948 10.9121 196.905 11.293C197.871 11.6738 198.706 12.1963 199.409 12.8604C200.113 13.5244 200.659 14.3057 201.05 15.2041C201.45 16.0928 201.651 17.0498 201.651 18.0752C201.651 19.208 201.45 20.2773 201.05 21.2832C200.659 22.2793 200.113 23.1533 199.409 23.9053C198.706 24.6475 197.871 25.2383 196.905 25.6777C195.948 26.1074 194.898 26.3223 193.755 26.3223ZM194.326 25.2236C194.912 25.2236 195.449 25.0723 195.938 24.7695C196.426 24.4668 196.846 24.0615 197.198 23.5537C197.549 23.0361 197.823 22.4404 198.018 21.7666C198.213 21.0928 198.311 20.3799 198.311 19.6279C198.311 18.5439 198.218 17.5283 198.033 16.5811C197.847 15.6338 197.544 14.8086 197.124 14.1055C196.704 13.4023 196.158 12.8506 195.484 12.4502C194.81 12.04 193.99 11.835 193.023 11.835C192.525 11.835 192.041 11.9814 191.573 12.2744C191.104 12.5576 190.689 12.9482 190.327 13.4463C189.976 13.9443 189.693 14.5303 189.478 15.2041C189.263 15.8682 189.156 16.5762 189.156 17.3281C189.156 18.4219 189.268 19.4473 189.492 20.4043C189.727 21.3613 190.064 22.1963 190.503 22.9092C190.952 23.6221 191.494 24.1885 192.129 24.6084C192.774 25.0186 193.506 25.2236 194.326 25.2236ZM205.008 10.7217H205.462L205.858 13.7832C206.092 13.334 206.385 12.9238 206.737 12.5527C207.088 12.1816 207.474 11.8594 207.894 11.5859C208.324 11.3125 208.773 11.1025 209.241 10.9561C209.72 10.7998 210.203 10.7217 210.692 10.7217C211.131 10.7217 211.561 10.7803 211.981 10.8975C212.41 11.0146 212.811 11.2002 213.182 11.4541L212.244 13.959C212.049 13.7441 211.844 13.5732 211.629 13.4463C211.414 13.3096 211.195 13.207 210.97 13.1387C210.745 13.0605 210.516 13.0117 210.282 12.9922C210.047 12.9727 209.813 12.9629 209.578 12.9629C209.207 12.9629 208.841 13.0166 208.48 13.124C208.128 13.2314 207.791 13.3926 207.469 13.6074C207.147 13.8125 206.849 14.0811 206.575 14.4131C206.302 14.7354 206.063 15.1162 205.858 15.5557V26H202.884V11.542L205.008 10.7217ZM215.558 17.0498L223.087 11H225.021L218.297 16.4639L226.603 26H222.677L215.558 17.7969V26H212.57V4.20312L214.708 3.35352H215.558V17.0498Z" fill="white"/>
</svg>
