<svg width="201" height="200" viewBox="0 0 201 200" fill="none" xmlns="http://www.w3.org/2000/svg">
<g clip-path="url(#clip0_875_7589)">
<path fill-rule="evenodd" clip-rule="evenodd" d="M173 50C173 48.3431 171.657 47 170 47H77C75.3431 47 74 48.3431 74 50V68C74 69.6569 72.6569 71 71 71H53C51.3431 71 50 72.3431 50 74V92C50 93.6569 48.6569 95 47 95H27H26H6C4.34315 95 3 96.3431 3 98V160C3 161.657 4.34314 163 6 163H146C147.657 163 149 161.657 149 160V142C149 140.343 150.343 139 152 139H170C171.657 139 173 137.657 173 136V118C173 116.343 174.343 115 176 115H194C195.657 115 197 113.657 197 112V74C197 72.3431 195.657 71 194 71H176C174.343 71 173 69.6569 173 68V50Z" fill="url(#paint0_linear_875_7589)"/>
<path d="M178.805 123.236V123.766L178.791 123.848L178.751 124.269V124.378C178.751 124.378 178.737 124.405 178.723 124.419L178.696 124.596V124.745C178.683 124.772 178.669 124.813 178.669 124.84L178.642 124.949L178.587 125.208V125.235C178.587 125.235 178.574 125.248 178.56 125.262L178.492 125.48L178.438 125.643C178.424 125.67 178.424 125.684 178.41 125.711L178.383 125.779L178.261 126.051L177.662 127.343L175.269 132.511L174.657 133.803L174.058 135.082L172.263 138.958C172.236 139.026 172.209 139.094 172.168 139.162C172.168 139.189 172.141 139.203 172.127 139.23L172.1 139.271C172.1 139.271 172.073 139.352 172.045 139.379C172.032 139.407 172.018 139.434 171.991 139.461L171.923 139.597C171.923 139.597 171.855 139.692 171.814 139.733C171.569 140.1 171.229 140.508 170.713 140.957C170.549 141.093 170.373 141.229 170.169 141.365C170.155 141.379 170.141 141.392 170.114 141.42H170.073C169.733 141.678 169.325 141.923 168.849 142.168C168.781 142.195 168.7 142.236 168.618 142.276C168.496 142.344 168.373 142.399 168.237 142.467C168.115 142.521 168.006 142.562 167.884 142.616H167.856C167.584 142.739 167.285 142.861 166.972 142.97H166.945L166.932 142.984C166.333 143.201 165.68 143.405 164.946 143.596C162.321 144.316 159.343 144.711 156.446 144.928H156.418C156.228 144.942 156.038 144.956 155.847 144.969L154.8 145.037C154.61 145.037 154.392 145.051 154.188 145.064H153.902C153.576 145.078 153.236 145.092 152.937 145.105L151.196 145.132H149.265L147.442 145.078L146.653 145.051L141.458 144.82C138.806 144.67 135.746 144.466 132.155 143.895C131.924 143.854 131.693 143.813 131.461 143.772C130.958 143.691 130.441 143.596 129.911 143.5C129.557 143.432 129.19 143.364 128.836 143.283C128.088 143.133 127.395 142.97 126.742 142.807C126.633 142.78 126.524 142.752 126.416 142.725C123.26 141.896 121.207 141.039 120.105 140.522C120.064 140.495 120.023 140.481 119.983 140.467C119.915 140.44 119.847 140.399 119.779 140.372C119.765 140.372 119.751 140.359 119.738 140.359C118.16 139.597 116.038 138.591 114.461 137.815L111.822 136.551L109.197 135.272C108.381 134.946 107.361 134.388 106.572 134.007L103.961 132.756L102.846 132.226C101.486 131.559 100.112 130.92 98.7521 130.253C97.0384 129.41 95.3247 128.594 93.5975 127.765L92.1558 127.071C90.9318 126.473 89.5989 125.833 88.5109 125.316C87.7628 124.949 86.7564 124.473 85.9948 124.106C85.6684 123.943 85.2875 123.766 84.9067 123.576L84.4307 123.344C84.1043 123.195 83.7915 123.032 83.5059 122.896L81.0306 121.712L78.5825 120.529L76.1616 119.359L73.7679 118.203C72.9927 118.027 72.1086 117.415 71.3878 117.061L69.0485 115.946H69.0757C68.9669 115.891 68.8853 115.85 68.8037 115.796C68.7357 115.755 68.6677 115.714 68.6133 115.687C68.5317 115.633 68.4773 115.578 68.4229 115.524C68.3821 115.483 68.3413 115.456 68.3141 115.415C68.2597 115.361 68.2325 115.293 68.2189 115.238C68.2053 115.198 68.1781 115.17 68.1781 115.143C68.1645 115.048 68.1645 114.953 68.2053 114.871L69.2933 112.546C69.3749 112.342 69.4701 112.165 69.5517 111.974L70.5037 109.921L71.2654 108.289C71.415 107.962 71.5646 107.649 71.7006 107.377C71.9318 106.861 72.1902 106.303 72.4622 105.732L72.8974 104.766L74.1351 102.128C74.2711 101.828 74.4343 101.488 74.5975 101.135L75.3727 99.4482L76.3248 97.4081C76.4336 97.1769 76.5424 96.9457 76.6376 96.7417L77.9024 94.0216C78.2969 92.2399 79.6841 90.1727 80.4457 88.5406C80.7042 87.9966 80.9898 87.3845 81.2754 86.7589L81.7242 85.7933L83.0026 83.046C83.1523 82.7196 83.3291 82.3387 83.5059 81.9579L83.9275 81.0331C84.0499 80.7883 84.1587 80.5435 84.2675 80.3259L85.1651 78.381C85.7228 77.1977 86.294 75.9737 86.77 74.94C87.2596 73.8792 87.8716 72.5599 88.4429 71.3359L89.2045 69.7038L89.9797 68.031C90.1293 67.7181 90.2653 67.4053 90.3877 67.1469C91.0814 65.6645 91.9926 63.6788 92.6862 62.1963C92.8086 61.9515 92.9447 61.7067 93.1215 61.4755C93.1759 61.3939 93.2439 61.3259 93.3119 61.2443C93.4343 61.0947 93.5567 60.9315 93.7063 60.7819C93.7879 60.7003 93.8831 60.6187 93.9783 60.5235C94.1279 60.4011 94.2775 60.2651 94.4271 60.1426C94.5495 60.0474 94.6719 59.9658 94.7943 59.8842C94.9575 59.7618 95.1207 59.6394 95.3111 59.5306C95.3655 59.4898 95.4063 59.4626 95.4608 59.4218C95.5288 59.381 95.624 59.3402 95.7056 59.2994C95.9232 59.1634 96.168 59.041 96.4128 58.9186C96.5488 58.837 96.6984 58.769 96.8344 58.701C97.1064 58.5786 97.392 58.4562 97.6776 58.3474C97.7865 58.3066 97.8816 58.2522 97.9769 58.2114C98.0177 58.1978 98.0585 58.1978 98.0993 58.1842C98.5889 57.9938 99.1057 57.817 99.6633 57.6537C99.7721 57.6265 99.9081 57.5993 100.031 57.5585C100.479 57.4361 100.955 57.3137 101.445 57.2049C101.54 57.1913 101.622 57.1641 101.717 57.1369C101.785 57.1233 101.853 57.1097 101.921 57.0961C102.601 56.9601 103.295 56.8377 104.029 56.7289C104.152 56.7153 104.274 56.7017 104.41 56.6881C105.09 56.5929 105.784 56.5249 106.504 56.4569C106.586 56.4569 106.668 56.4433 106.763 56.4297H106.885C107.674 56.3753 108.476 56.3345 109.306 56.3209H109.85C110.707 56.3073 111.564 56.3209 112.461 56.3617L117.643 56.5929H117.806C117.915 56.5929 118.024 56.6201 118.133 56.6201C118.854 56.6609 119.561 56.7153 120.268 56.7833C120.527 56.8105 120.771 56.8377 121.03 56.8649C121.628 56.9329 122.227 57.0145 122.811 57.0961C122.961 57.1233 123.124 57.1369 123.274 57.1505C123.355 57.1641 123.437 57.1913 123.532 57.2049C123.981 57.2729 124.43 57.3681 124.879 57.4497C125.124 57.5041 125.368 57.5449 125.6 57.5857C126.144 57.7082 126.688 57.8306 127.218 57.9666C127.313 57.9938 127.436 58.021 127.544 58.0482C127.544 58.0482 127.558 58.0618 127.572 58.0618C127.694 58.089 127.816 58.1298 127.939 58.157C128.388 58.2794 128.823 58.4018 129.231 58.5378C129.435 58.6058 129.612 58.6738 129.816 58.7282C130.074 58.8234 130.346 58.905 130.605 59.0002C130.659 59.0138 130.7 59.041 130.741 59.0546C131.407 59.2994 132.046 59.5578 132.631 59.8298C132.672 59.8434 132.713 59.857 132.74 59.8706C132.903 59.9386 133.039 60.0202 133.189 60.0882C133.488 60.2378 133.773 60.3739 134.046 60.5235C134.1 60.5507 134.154 60.5779 134.209 60.6051C134.426 60.7275 134.63 60.8499 134.848 60.9859C134.957 61.0539 135.079 61.1083 135.188 61.1763C135.202 61.1899 135.229 61.2035 135.256 61.2307C135.514 61.3939 135.773 61.5707 136.004 61.7339C136.058 61.7747 136.099 61.8155 136.154 61.8427C136.194 61.8835 136.249 61.9243 136.303 61.9651C136.385 62.0331 136.48 62.1011 136.575 62.1827C136.725 62.3051 136.861 62.4139 136.997 62.5499C137.038 62.5771 137.078 62.6179 137.119 62.6588C137.133 62.686 137.16 62.6995 137.174 62.7131C137.214 62.754 137.255 62.7948 137.31 62.8356C137.391 62.9172 137.459 62.9988 137.541 63.0804C137.622 63.1756 137.69 63.2572 137.758 63.3388C137.799 63.3796 137.84 63.4204 137.867 63.4612L137.908 63.502C137.908 63.502 137.949 63.5564 137.962 63.5836C138.003 63.6244 138.03 63.6652 138.058 63.706C138.547 64.3588 139.037 65.0252 139.513 65.6781C140.261 66.6709 140.995 67.6638 141.73 68.6566L143.049 70.4383L144.776 72.7776L146.544 75.1577L147.401 76.3137C147.823 76.8849 148.258 77.4697 148.68 78.041L150.149 80.013L151.985 82.5019L153.848 85.0044L155.371 87.0717C155.521 87.2621 155.657 87.4661 155.806 87.6566L157.629 90.1183L159.547 92.7024L161.478 95.3137L161.927 95.9257C162.634 96.8641 163.327 97.8162 164.035 98.7546L165.381 100.577L167.34 103.216C167.394 103.297 167.462 103.392 167.53 103.488L169.325 105.895L169.815 106.561C171.637 109.023 173.446 111.471 175.269 113.919L175.282 113.933C175.282 113.933 175.287 113.942 175.296 113.96C175.446 114.178 175.636 114.45 175.786 114.654C175.881 114.803 176.003 114.994 176.112 115.157C176.139 115.198 176.166 115.238 176.194 115.293C176.207 115.32 176.234 115.361 176.262 115.402L176.357 115.578C176.493 115.796 176.629 116.014 176.751 116.259C176.86 116.449 176.969 116.667 177.064 116.843L177.404 117.537C177.499 117.755 177.622 118.027 177.703 118.244L177.866 118.652L177.921 118.788V118.815C177.989 118.965 178.03 119.074 178.07 119.21L178.111 119.319L178.138 119.427C178.247 119.754 178.342 120.039 178.383 120.257C178.438 120.447 178.506 120.692 178.547 120.896L178.669 121.508V121.536C178.696 121.726 178.723 121.944 178.751 122.107V122.284C178.751 122.284 178.778 122.365 178.778 122.42L178.805 122.678C178.805 122.841 178.819 123.072 178.819 123.236H178.805Z" fill="url(#paint1_linear_875_7589)"/>
<path d="M178.805 123.236V123.766L178.791 123.848L178.75 124.269V124.378C178.75 124.378 178.737 124.405 178.723 124.419L178.696 124.596V124.745C178.682 124.772 178.669 124.813 178.669 124.84L178.642 124.949L178.587 125.208V125.235C178.587 125.235 178.574 125.248 178.56 125.262L178.492 125.48L178.438 125.643C178.424 125.67 178.424 125.684 178.41 125.711L178.383 125.779L178.261 126.051L177.662 127.343L175.269 132.511L174.657 133.803L174.058 135.082L172.263 138.958C172.236 139.026 172.209 139.094 172.168 139.162C172.168 139.189 172.141 139.203 172.127 139.23L172.1 139.271C172.1 139.271 172.072 139.352 172.045 139.379C172.032 139.407 172.018 139.434 171.991 139.461L171.923 139.597C171.923 139.597 171.855 139.692 171.814 139.733C171.569 140.1 171.229 140.508 170.712 140.957C170.549 141.093 170.372 141.229 170.168 141.365C170.155 141.379 170.141 141.392 170.114 141.42H170.073C169.733 141.678 169.325 141.923 168.849 142.168C168.047 142.004 167.176 141.719 166.251 141.284C147.796 132.389 129.34 123.494 115.698 116.925C122.703 101.842 132.359 81.0875 139.513 65.6781C140.261 66.6709 140.995 67.6638 141.73 68.6566L143.049 70.4383L144.776 72.7776L146.544 75.1577L147.401 76.3137C147.823 76.885 148.258 77.4698 148.68 78.041L150.148 80.0131L151.984 82.502L153.848 85.0045L155.371 87.0718C155.521 87.2622 155.657 87.4662 155.806 87.6566L157.629 90.1183L159.546 92.7024L161.478 95.3137L161.926 95.9257C162.634 96.8641 163.327 97.8162 164.035 98.7546L165.381 100.577L167.34 103.216C167.394 103.297 167.462 103.392 167.53 103.488L169.325 105.895L169.815 106.561C171.637 109.023 173.446 111.471 175.269 113.919L175.282 113.933C175.282 113.933 175.287 113.942 175.296 113.96C175.445 114.178 175.636 114.45 175.785 114.654C175.881 114.803 176.003 114.994 176.112 115.157C176.139 115.198 176.166 115.238 176.193 115.293C176.207 115.32 176.234 115.361 176.261 115.402L176.357 115.579C176.493 115.796 176.629 116.014 176.751 116.259C176.86 116.449 176.969 116.667 177.064 116.843L177.404 117.537C177.499 117.755 177.622 118.027 177.703 118.244L177.866 118.652L177.921 118.788V118.815C177.989 118.965 178.03 119.074 178.07 119.21L178.111 119.319L178.138 119.427C178.247 119.754 178.342 120.039 178.383 120.257C178.438 120.448 178.506 120.692 178.546 120.896L178.669 121.508V121.536C178.696 121.726 178.723 121.944 178.75 122.107V122.284C178.75 122.284 178.778 122.365 178.778 122.42L178.805 122.678C178.805 122.841 178.818 123.072 178.818 123.236H178.805Z" fill="url(#paint2_linear_875_7589)"/>
<path d="M114.093 36.4097C133.392 37.9737 139.907 59.3946 128.646 84.2428C117.384 109.091 92.6178 127.969 73.3187 126.391C54.0195 124.813 47.5048 103.406 58.7661 78.5578C70.0273 53.7096 94.7939 34.832 114.093 36.4097Z" fill="url(#paint3_linear_875_7589)"/>
<path d="M117.983 82.5971C117.942 82.6788 117.915 82.7604 117.86 82.842C113.671 91.9679 106.994 99.965 99.5948 105.473C92.4545 110.791 84.6342 113.783 77.7795 113.226C63.7574 112.083 59.0108 96.5241 67.1983 78.4626C75.3859 60.4011 93.3794 46.6917 107.415 47.8206C121.424 48.963 126.17 64.5356 117.983 82.5971Z" fill="url(#paint4_linear_875_7589)"/>
<path d="M117.861 82.8418C113.672 91.9678 106.994 99.9649 99.5953 105.473L89.0957 97.204C89.9661 97.8976 91.0678 98.3193 92.3598 98.4281C92.7135 98.4553 93.0807 98.4553 93.4479 98.4281C93.5703 98.4281 93.6927 98.4009 93.8151 98.4009C94.0599 98.3737 94.3047 98.3465 94.5631 98.3057C94.7127 98.2785 94.8623 98.2377 95.0119 98.2105C95.2296 98.1561 95.4608 98.1153 95.692 98.0473L96.1816 97.884C96.3992 97.816 96.6168 97.7344 96.8344 97.6528C97.0248 97.5848 97.2016 97.5032 97.3784 97.4216C97.5688 97.3536 97.7456 97.272 97.9225 97.1768C98.1537 97.068 98.3985 96.9456 98.6297 96.8232C98.7113 96.7688 98.8065 96.728 98.9017 96.6736C99.2145 96.4832 99.5273 96.2928 99.8537 96.0888C99.9081 96.048 99.9625 96.0072 100.031 95.9664C100.33 95.7624 100.629 95.5584 100.915 95.3271C100.942 95.3135 100.969 95.2863 100.996 95.2727C101.323 95.0279 101.635 94.7695 101.935 94.5111C101.975 94.4703 102.03 94.4295 102.071 94.4023C102.37 94.1439 102.655 93.8719 102.955 93.5863C102.995 93.5455 103.036 93.5047 103.077 93.4639C103.363 93.1783 103.648 92.879 103.92 92.5798C103.961 92.539 104.002 92.4982 104.043 92.4574C104.315 92.1446 104.573 91.8318 104.845 91.519C104.886 91.4646 104.927 91.4102 104.968 91.3694C105.212 91.043 105.471 90.7166 105.702 90.3765C105.743 90.3221 105.784 90.2677 105.824 90.1997C106.083 89.8461 106.314 89.4925 106.545 89.1253C106.559 89.1117 106.559 89.0981 106.559 89.0981C106.776 88.7581 106.967 88.4045 107.171 88.0509C107.252 87.9012 107.32 87.7516 107.402 87.5884C107.579 87.262 107.756 86.922 107.905 86.582C108.164 85.9972 108.381 85.4259 108.572 84.8683C108.626 84.7187 108.68 84.5691 108.721 84.4195C108.912 83.8619 109.061 83.2907 109.17 82.7602C109.238 82.4338 109.265 82.121 109.306 81.8082C109.347 81.5226 109.401 81.237 109.429 80.965V80.9106C109.456 80.3937 109.456 79.8769 109.429 79.4009C109.429 79.3465 109.429 79.2921 109.429 79.2377C109.388 78.7345 109.306 78.2449 109.197 77.796C109.197 77.7824 109.184 77.7688 109.184 77.7552C109.075 77.2928 108.912 76.8712 108.721 76.4632C108.721 76.4496 108.708 76.436 108.708 76.4224C108.517 76.028 108.286 75.6608 108.028 75.3207C108.014 75.3071 108 75.2935 108 75.2663C107.728 74.9263 107.429 74.6271 107.089 74.3551L117.874 82.8418H117.861Z" fill="url(#paint5_linear_875_7589)"/>
<path d="M103.811 73.1447C109.224 73.58 111.06 79.5914 107.891 86.5821C104.722 93.5728 97.7725 98.8634 92.3595 98.4282C86.9465 97.9929 85.0968 91.9815 88.2657 84.9908C91.4347 78.0001 98.3845 72.7095 103.811 73.1583V73.1447Z" fill="url(#paint6_linear_875_7589)"/>
<path d="M151.06 72.7639C151.033 72.2743 151.019 71.7847 150.978 71.3087C150.978 71.1999 150.978 71.0775 150.965 70.9687C150.924 70.4926 150.842 70.0302 150.774 69.5678C150.733 69.2822 150.706 68.9966 150.665 68.711C150.665 68.6566 150.665 68.5886 150.638 68.5342C150.516 67.8133 150.366 67.0925 150.203 66.3989C150.203 66.3717 150.189 66.3309 150.176 66.3037C150.149 66.1677 150.094 66.0453 150.067 65.9093C149.945 65.4332 149.809 64.9436 149.659 64.4812C149.605 64.3316 149.55 64.182 149.496 64.0324C149.428 63.8284 149.346 63.6108 149.264 63.4068C149.183 63.1892 149.115 62.9579 149.02 62.7403C148.884 62.4003 148.72 62.0739 148.571 61.7475C148.503 61.6115 148.448 61.4619 148.38 61.3259C148.353 61.2715 148.326 61.2035 148.299 61.1491C148.054 60.6459 147.782 60.1426 147.51 59.6666C147.469 59.585 147.415 59.517 147.374 59.449C147.292 59.313 147.197 59.177 147.116 59.0546C146.952 58.8098 146.803 58.5514 146.64 58.3066C146.476 58.0617 146.3 57.8441 146.123 57.6129C146.028 57.4905 145.932 57.3545 145.837 57.2321C145.783 57.1641 145.728 57.0825 145.674 57.0145C145.334 56.6065 144.98 56.1985 144.613 55.8177C144.572 55.7769 144.518 55.7361 144.477 55.6817C144.382 55.5728 144.273 55.4912 144.164 55.3824C143.933 55.1512 143.688 54.92 143.443 54.7024C143.185 54.4712 142.913 54.2536 142.641 54.036L125.681 40.6938C126.212 41.1155 126.715 41.5779 127.191 42.0403C127.3 42.1355 127.395 42.2307 127.504 42.3395C127.98 42.8291 128.428 43.346 128.864 43.8764C128.959 43.9988 129.054 44.1348 129.149 44.2572C129.503 44.7196 129.829 45.1956 130.142 45.6988C130.224 45.8349 130.319 45.9573 130.401 46.0933C130.768 46.6917 131.108 47.3173 131.421 47.9701C131.489 48.1061 131.543 48.2558 131.611 48.3918C131.856 48.9358 132.087 49.4798 132.291 50.051C132.373 50.255 132.441 50.459 132.522 50.6766C132.726 51.2887 132.917 51.9143 133.093 52.5535C133.134 52.6895 133.175 52.8119 133.202 52.9479C133.393 53.7232 133.556 54.5256 133.692 55.3552C133.733 55.6272 133.76 55.9265 133.801 56.1985C133.882 56.7697 133.95 57.3409 134.005 57.9257C134.045 58.4018 134.059 58.8914 134.086 59.381C134.113 59.8978 134.141 60.401 134.141 60.9179C134.141 61.1083 134.141 61.2851 134.141 61.4755C134.141 62.3187 134.113 63.1756 134.045 64.046C134.045 64.1004 134.045 64.1548 134.045 64.2092C134.005 64.7124 133.937 65.2428 133.882 65.7597C133.828 66.2901 133.787 66.8069 133.705 67.3509C133.637 67.8677 133.529 68.3982 133.433 68.9286C133.338 69.4862 133.257 70.0302 133.148 70.5878C132.957 71.5535 132.713 72.5191 132.454 73.512C132.386 73.7704 132.318 74.0288 132.25 74.2872C132.019 75.144 131.761 76.0145 131.475 76.8849C131.421 77.0481 131.38 77.1977 131.325 77.3609C130.985 78.381 130.618 79.401 130.224 80.4346C130.142 80.6523 130.061 80.8563 129.965 81.0739C129.544 82.1211 129.108 83.1684 128.632 84.2292C128.292 84.9636 127.952 85.6981 127.585 86.4325C127.014 87.6021 126.402 88.7446 125.763 89.887C125.64 90.1046 125.518 90.3358 125.396 90.5534C124.879 91.4647 124.348 92.3759 123.791 93.26C123.75 93.3144 123.723 93.3688 123.682 93.4232C123.206 94.1848 122.716 94.9328 122.227 95.6809C122.036 95.9665 121.846 96.2385 121.655 96.5241C121.329 97.0001 121.003 97.4761 120.663 97.9385C120.445 98.2514 120.214 98.5506 119.983 98.8634C119.697 99.2578 119.398 99.6522 119.098 100.047C118.854 100.359 118.622 100.672 118.378 100.971C118.092 101.339 117.793 101.706 117.494 102.073C117.235 102.386 116.99 102.685 116.732 102.998C116.446 103.338 116.147 103.692 115.848 104.032C115.59 104.331 115.318 104.63 115.059 104.929C114.76 105.256 114.474 105.582 114.175 105.895C113.903 106.194 113.631 106.493 113.345 106.779C113.046 107.092 112.747 107.405 112.434 107.717C112.149 108.003 111.877 108.289 111.591 108.561C111.278 108.873 110.965 109.173 110.653 109.472C110.367 109.744 110.095 110.016 109.809 110.274C109.469 110.587 109.129 110.9 108.789 111.199C108.517 111.444 108.232 111.702 107.96 111.947C107.592 112.274 107.212 112.586 106.844 112.899C106.586 113.117 106.314 113.348 106.056 113.566C105.607 113.933 105.158 114.286 104.709 114.64C104.505 114.803 104.301 114.966 104.083 115.13C103.39 115.66 102.71 116.163 102.003 116.653C101.867 116.748 101.731 116.843 101.595 116.939C100.996 117.347 100.411 117.755 99.8129 118.149C99.5817 118.299 99.3641 118.435 99.1329 118.584C98.5209 118.965 97.9224 119.346 97.3104 119.699C97.1064 119.822 96.9024 119.944 96.6984 120.067C95.8143 120.583 94.9167 121.059 94.0191 121.508C93.7199 121.658 93.4206 121.808 93.1214 121.944C92.795 122.107 92.4686 122.256 92.1422 122.406C91.8158 122.556 91.4894 122.705 91.163 122.841C90.8365 122.977 90.5101 123.127 90.1837 123.263C89.8845 123.385 89.5853 123.494 89.2997 123.616C88.9053 123.766 88.5109 123.916 88.1164 124.065C87.8172 124.174 87.518 124.269 87.2324 124.378C86.8516 124.514 86.4572 124.636 86.0764 124.759C85.7771 124.854 85.4779 124.936 85.1923 125.017C84.8115 125.126 84.4307 125.235 84.0363 125.33C83.7371 125.398 83.4514 125.48 83.1522 125.548C82.7714 125.629 82.3906 125.711 81.9962 125.792C81.7106 125.847 81.4114 125.901 81.1258 125.956C80.7313 126.024 80.3505 126.078 79.9697 126.132C79.6977 126.173 79.4121 126.214 79.1401 126.241C78.7457 126.282 78.3376 126.323 77.9432 126.35C77.6848 126.364 77.4264 126.391 77.168 126.404C76.7328 126.432 76.2976 126.432 75.8623 126.432C75.6447 126.432 75.4271 126.432 75.2231 126.432C74.5839 126.432 73.9447 126.391 73.319 126.35C68.6949 125.969 64.8051 124.46 61.7178 122.025L78.6777 135.367C81.765 137.802 85.6547 139.311 90.2789 139.692C90.9045 139.747 91.5438 139.774 92.183 139.774C92.4006 139.774 92.6046 139.774 92.8222 139.774C93.2574 139.774 93.6927 139.774 94.1279 139.747C94.3863 139.733 94.6447 139.706 94.9031 139.692C95.2975 139.665 95.6919 139.624 96.1 139.583C96.372 139.556 96.6576 139.515 96.9296 139.475C97.3104 139.42 97.7048 139.366 98.0856 139.298C98.3712 139.243 98.6569 139.189 98.9561 139.135C99.3369 139.053 99.7177 138.985 100.099 138.89C100.398 138.822 100.683 138.754 100.983 138.672C101.363 138.577 101.744 138.468 102.139 138.359C102.438 138.278 102.737 138.183 103.036 138.101C103.417 137.979 103.811 137.856 104.192 137.72C104.491 137.625 104.791 137.516 105.09 137.407C105.484 137.271 105.879 137.122 106.26 136.959C106.464 136.877 106.654 136.809 106.858 136.727C106.953 136.687 107.048 136.646 107.144 136.605C107.47 136.469 107.796 136.319 108.123 136.183C108.449 136.047 108.776 135.898 109.102 135.748C109.428 135.598 109.755 135.435 110.081 135.272C110.313 135.163 110.544 135.054 110.775 134.946C110.843 134.905 110.911 134.864 110.979 134.837C111.877 134.388 112.761 133.898 113.658 133.395C113.726 133.354 113.794 133.327 113.849 133.286C113.985 133.205 114.121 133.11 114.27 133.028C114.882 132.661 115.494 132.294 116.093 131.913C116.229 131.831 116.365 131.75 116.501 131.668C116.596 131.613 116.678 131.545 116.773 131.477C117.371 131.083 117.97 130.689 118.554 130.267C118.663 130.185 118.786 130.117 118.894 130.036C118.922 130.022 118.949 129.995 118.962 129.981C119.656 129.492 120.35 128.975 121.03 128.458C121.057 128.431 121.084 128.417 121.111 128.39C121.288 128.254 121.479 128.105 121.655 127.955C122.104 127.601 122.553 127.248 123.002 126.894C123.056 126.84 123.124 126.799 123.179 126.758C123.383 126.581 123.587 126.404 123.791 126.228C124.158 125.915 124.539 125.602 124.906 125.276C124.988 125.208 125.069 125.14 125.151 125.072C125.355 124.895 125.545 124.718 125.736 124.541C126.076 124.242 126.416 123.929 126.756 123.616C126.851 123.521 126.946 123.44 127.055 123.344C127.245 123.168 127.422 122.977 127.612 122.8C127.925 122.501 128.238 122.202 128.551 121.889C128.66 121.78 128.768 121.685 128.864 121.576C129.04 121.399 129.217 121.209 129.38 121.032C129.68 120.719 129.993 120.407 130.292 120.094C130.401 119.971 130.509 119.863 130.618 119.754C130.781 119.577 130.945 119.4 131.108 119.223C131.407 118.897 131.706 118.584 131.992 118.258C132.101 118.135 132.223 117.999 132.345 117.877C132.495 117.7 132.645 117.523 132.794 117.36C133.093 117.02 133.379 116.68 133.678 116.326C133.801 116.19 133.923 116.041 134.045 115.905C134.181 115.742 134.304 115.578 134.44 115.415C134.739 115.048 135.038 114.681 135.324 114.314C135.446 114.15 135.582 114.001 135.705 113.838C135.814 113.688 135.922 113.538 136.045 113.389C136.344 112.994 136.643 112.614 136.929 112.206C137.065 112.015 137.214 111.838 137.35 111.648C137.446 111.525 137.527 111.403 137.609 111.281C137.949 110.818 138.275 110.342 138.602 109.866C138.738 109.662 138.887 109.472 139.023 109.268C139.078 109.186 139.118 109.118 139.173 109.037C139.663 108.302 140.152 107.554 140.628 106.793C140.655 106.738 140.696 106.684 140.737 106.629C140.737 106.629 140.737 106.629 140.737 106.616C141.295 105.718 141.825 104.82 142.342 103.909C142.396 103.8 142.464 103.705 142.519 103.596C142.587 103.474 142.641 103.352 142.709 103.243C143.335 102.1 143.947 100.958 144.532 99.7882C144.532 99.761 144.559 99.7474 144.559 99.7202C144.912 99.013 145.239 98.2922 145.565 97.5849C146.041 96.5241 146.476 95.4768 146.898 94.4296C146.98 94.212 147.061 94.008 147.143 93.7904C147.211 93.6136 147.292 93.4368 147.36 93.26C147.687 92.4031 147.972 91.5599 148.258 90.7167C148.312 90.5534 148.353 90.4038 148.408 90.2406C148.693 89.3702 148.952 88.4998 149.183 87.6429C149.251 87.3845 149.319 87.1261 149.387 86.8677C149.632 85.9021 149.877 84.95 150.067 83.998C150.067 83.9844 150.067 83.9572 150.067 83.9436C150.189 83.3724 150.257 82.8283 150.353 82.2571C150.448 81.7403 150.543 81.2099 150.625 80.7067C150.706 80.149 150.747 79.6186 150.801 79.0746C150.856 78.585 150.924 78.0954 150.951 77.6193C150.951 77.6057 150.951 77.5785 150.951 77.5649C150.951 77.5105 150.951 77.4561 150.951 77.4017C151.005 76.5313 151.033 75.6881 151.046 74.8448C151.046 74.6544 151.046 74.4776 151.046 74.2872C151.046 74.1376 151.046 73.988 151.046 73.8384C151.046 73.4712 151.005 73.1175 150.978 72.7503L151.06 72.7639Z" fill="url(#paint7_linear_875_7589)"/>
<path d="M138.207 135.707C138.207 135.707 138.221 135.707 138.234 135.721C138.234 135.721 138.22 135.721 138.207 135.707Z" fill="url(#paint8_linear_875_7589)"/>
<path d="M135.963 134.524C135.963 134.524 135.949 134.524 135.936 134.524C135.963 134.524 135.99 134.538 136.017 134.551H135.963V134.524Z" fill="url(#paint9_linear_875_7589)"/>
<path d="M141.498 141.134V140.862L141.457 140.671C141.444 140.617 141.444 140.563 141.43 140.508V140.454L141.417 140.399L141.362 140.141C141.349 140.073 141.335 140.019 141.321 139.951C141.267 139.801 141.226 139.611 141.185 139.475L141.158 139.42C141.158 139.42 141.158 139.379 141.158 139.366L141.104 139.216C141.063 139.121 141.036 139.026 140.995 138.931C140.886 138.631 140.75 138.373 140.614 138.128C140.601 138.128 140.601 138.115 140.587 138.101C140.356 137.707 140.111 137.367 139.853 137.081C139.839 137.067 139.812 137.04 139.798 137.027L139.445 136.659C139.377 136.591 139.295 136.523 139.213 136.455C139.173 136.415 139.132 136.387 139.091 136.347C138.941 136.224 138.792 136.102 138.669 135.993C138.547 135.925 138.397 135.83 138.275 135.748C138.261 135.735 138.248 135.721 138.234 135.721L137.894 135.503L137.296 135.136H137.255L137.119 135.041C137.105 135.027 137.092 135.027 137.078 135.027C136.983 134.973 136.888 134.918 136.806 134.864L136.738 134.837C136.738 134.837 136.616 134.782 136.548 134.755L136.33 134.646C136.33 134.646 136.276 134.633 136.248 134.619C136.153 134.578 136.044 134.551 135.949 134.51C135.881 134.497 135.813 134.47 135.745 134.442C135.677 134.415 135.609 134.402 135.528 134.374C135.528 134.374 135.5 134.374 135.487 134.361L135.269 134.32C135.269 134.32 135.133 134.279 135.065 134.266H134.997C134.997 134.266 134.984 134.252 134.97 134.252C134.943 134.252 134.916 134.238 134.888 134.238C134.861 134.238 134.848 134.225 134.82 134.225H134.78C134.616 134.198 134.467 134.184 134.331 134.17C134.236 134.157 134.14 134.143 134.059 134.143C133.936 134.143 133.773 134.143 133.624 134.13H133.542C133.311 134.143 132.998 134.17 132.767 134.198L132.291 134.293C132.1 134.334 131.855 134.402 131.665 134.456H131.651L131.284 134.592C131.284 134.592 131.243 134.606 131.23 134.606H131.203C131.053 134.674 130.849 134.769 130.699 134.837L130.305 135.054C130.169 135.122 130.006 135.231 129.883 135.313L129.53 135.558C129.435 135.639 129.285 135.762 129.19 135.843C129.122 135.884 129.027 135.979 128.931 136.075L128.877 136.115C128.877 136.115 128.85 136.156 128.823 136.17C128.727 136.265 128.632 136.36 128.578 136.428L128.306 136.727C128.224 136.823 128.129 136.959 128.047 137.054L127.816 137.38C127.734 137.475 127.667 137.625 127.598 137.734L127.394 138.087C127.394 138.087 127.367 138.155 127.34 138.196C127.313 138.264 127.272 138.319 127.245 138.387C127.231 138.414 127.218 138.441 127.218 138.468L127.054 138.849C127 138.985 126.946 139.148 126.905 139.271C126.864 139.407 126.81 139.57 126.782 139.692L126.048 142.548L125.314 145.418L124.566 148.274L123.831 151.13L123.097 153.986L122.362 156.843L121.628 159.699L120.893 162.555L120.159 165.411L119.425 168.267C119.37 168.525 119.302 168.865 119.261 169.124L119.207 169.573C119.207 169.736 119.193 169.94 119.193 170.103V170.552C119.193 170.552 119.221 170.606 119.221 170.633C119.234 170.81 119.261 171.014 119.289 171.178L119.357 171.572C119.357 171.572 119.384 171.667 119.397 171.708C119.438 171.898 119.506 172.13 119.561 172.306L119.629 172.483C119.669 172.565 119.697 172.646 119.724 172.728V172.755C120.037 173.517 120.458 174.115 120.88 174.591C120.893 174.618 120.921 174.632 120.934 174.659L121.288 175.026C121.356 175.094 121.437 175.162 121.519 175.23C121.56 175.271 121.601 175.298 121.641 175.326C121.791 175.462 121.941 175.584 122.077 175.679C122.199 175.775 122.376 175.883 122.512 175.979L123.45 176.55C123.45 176.55 123.559 176.618 123.627 176.645C123.818 176.754 124.035 176.863 124.212 176.958L124.702 177.148C124.77 177.175 124.865 177.189 124.946 177.216C125.069 177.257 125.191 177.298 125.314 177.325C125.395 177.352 125.477 177.379 125.558 177.393L125.858 177.447H125.885L126.062 177.488C126.252 177.515 126.497 177.529 126.687 177.543H127.408C127.517 177.529 127.626 177.515 127.735 177.502C127.816 177.502 127.911 177.488 127.993 177.488H128.061L128.075 177.475C128.197 177.447 128.333 177.42 128.455 177.393H128.51C129.761 177.121 130.917 176.495 131.869 175.571H131.883C131.964 175.475 132.087 175.353 132.168 175.271L132.291 175.135C132.291 175.135 132.331 175.081 132.359 175.067L132.454 174.958C132.522 174.863 132.631 174.727 132.699 174.632L132.944 174.306C132.944 174.306 133.012 174.197 133.039 174.142C133.066 174.102 133.107 174.047 133.134 174.006C133.134 173.993 133.148 173.966 133.161 173.952L133.365 173.598C133.365 173.598 133.365 173.571 133.365 173.558C133.365 173.558 133.379 173.544 133.379 173.53C133.42 173.435 133.488 173.313 133.528 173.218L133.692 172.837L133.8 172.538C133.8 172.538 133.828 172.456 133.841 172.415C133.855 172.388 133.855 172.361 133.868 172.347V172.279C133.909 172.184 133.936 172.075 133.964 171.98L134.698 169.124L135.432 166.268L136.167 163.412L136.915 160.556L137.649 157.699L138.384 154.843L139.118 151.987L139.853 149.131L140.587 146.261L141.321 143.405L141.362 143.201L141.403 143.052L141.43 142.916C141.43 142.916 141.417 142.984 141.403 143.011C141.43 142.848 141.471 142.698 141.485 142.562L141.525 142.113V141.977L141.539 141.841C141.539 141.746 141.553 141.651 141.553 141.569V141.515L141.525 141.134H141.498Z" fill="url(#paint10_linear_875_7589)"/>
<path d="M139.159 138.931C139.145 138.727 139.145 138.509 139.118 138.305C139.118 138.183 139.077 138.087 139.05 137.979C139.037 137.924 139.05 137.856 139.037 137.802C139.037 137.761 138.996 137.72 138.996 137.666C138.969 137.571 138.941 137.475 138.914 137.394C138.914 137.394 138.914 137.367 138.901 137.353C138.887 137.285 138.86 137.217 138.833 137.163C138.819 137.135 138.805 137.095 138.805 137.067C138.805 137.04 138.792 137.027 138.792 137.013C138.765 136.959 138.737 136.918 138.724 136.877C138.71 136.836 138.697 136.795 138.683 136.768C138.683 136.755 138.669 136.741 138.669 136.727C138.656 136.727 138.656 136.714 138.656 136.7C138.642 136.673 138.615 136.632 138.588 136.605C138.574 136.564 138.561 136.523 138.533 136.496C138.533 136.496 138.52 136.455 138.506 136.442C138.493 136.415 138.479 136.387 138.452 136.36C138.452 136.347 138.438 136.347 138.438 136.333C138.438 136.306 138.411 136.279 138.397 136.251H138.384C138.384 136.251 138.357 136.197 138.343 136.183C138.329 136.156 138.302 136.129 138.289 136.102C138.275 136.075 138.248 136.047 138.221 136.02C138.221 136.02 138.207 136.007 138.207 135.993C138.18 135.952 138.139 135.911 138.112 135.871C138.098 135.857 138.085 135.843 138.071 135.816C138.057 135.803 138.03 135.789 138.017 135.775C138.017 135.748 137.989 135.735 137.962 135.707L137.921 135.667C137.921 135.667 137.894 135.639 137.894 135.626H137.881L137.853 135.599C137.853 135.599 137.826 135.571 137.826 135.558C137.826 135.558 137.817 135.553 137.799 135.544L137.772 135.517C137.772 135.517 137.649 135.435 137.595 135.381C137.541 135.327 137.486 135.286 137.418 135.245C137.377 135.204 137.323 135.177 137.282 135.15H137.268H137.228L137.092 135.055C137.078 135.041 137.064 135.041 137.051 135.041C136.956 134.987 136.86 134.932 136.779 134.878L136.711 134.85C136.711 134.85 136.588 134.796 136.52 134.769L136.303 134.66C136.303 134.66 136.248 134.646 136.221 134.633L136.017 134.551H136.004L135.976 134.538H135.949C135.949 134.538 135.813 134.497 135.745 134.47C135.677 134.442 135.609 134.429 135.528 134.402C135.528 134.402 135.5 134.402 135.487 134.388L135.269 134.347C135.269 134.347 135.133 134.306 135.065 134.293H134.997C134.997 134.293 134.984 134.279 134.97 134.279C134.943 134.279 134.916 134.266 134.888 134.266C134.861 134.266 134.848 134.252 134.82 134.252H134.78C134.616 134.225 134.467 134.211 134.331 134.198C134.236 134.184 134.14 134.17 134.059 134.17C133.991 134.17 133.896 134.17 133.814 134.17C133.814 134.17 133.705 134.17 133.637 134.17H133.542C133.311 134.184 132.998 134.211 132.767 134.238L132.291 134.334C132.114 134.374 131.883 134.442 131.692 134.483H131.679V134.497H131.665L131.298 134.633C131.298 134.633 131.257 134.646 131.243 134.646H131.216C131.067 134.714 130.863 134.81 130.713 134.878L130.319 135.095C130.183 135.163 130.019 135.272 129.897 135.354L129.543 135.599C129.448 135.68 129.299 135.803 129.203 135.884C129.135 135.925 129.04 136.02 128.945 136.115L128.891 136.156C128.891 136.156 128.863 136.197 128.836 136.211C128.741 136.306 128.646 136.401 128.591 136.469L128.319 136.768C128.238 136.863 128.143 136.999 128.061 137.095L127.83 137.421C127.748 137.516 127.68 137.666 127.612 137.775L127.408 138.128C127.408 138.128 127.381 138.196 127.354 138.237C127.327 138.305 127.286 138.359 127.259 138.427C127.245 138.455 127.231 138.482 127.231 138.509L127.068 138.89C127.014 139.026 126.959 139.189 126.918 139.311C126.878 139.447 126.823 139.611 126.796 139.733L126.062 142.589L125.327 145.459L124.579 148.315L123.845 151.171L123.11 154.027L122.376 156.883L121.641 159.74L120.907 162.596L120.173 165.452L119.438 168.308C119.384 168.566 119.316 168.906 119.275 169.165L119.221 169.613C119.221 169.777 119.207 169.981 119.207 170.144V170.593C119.207 170.593 119.234 170.647 119.234 170.674C119.248 170.851 119.275 171.055 119.302 171.218L119.37 171.613C119.37 171.613 119.397 171.708 119.411 171.749C119.452 171.939 119.52 172.17 119.574 172.347L119.642 172.524C119.683 172.606 119.71 172.687 119.737 172.769V172.796C120.05 173.558 120.472 174.156 120.893 174.632C120.907 174.659 120.934 174.673 120.948 174.7L121.301 175.067C121.369 175.135 121.451 175.203 121.533 175.271C121.573 175.312 121.614 175.339 121.655 175.367C121.805 175.503 121.954 175.625 122.09 175.72C122.213 175.815 122.39 175.924 122.526 176.019C123.097 176.359 123.777 176.55 124.538 176.523C124.756 176.523 124.96 176.495 125.178 176.468C125.191 176.468 125.205 176.455 125.218 176.455H125.246C125.246 176.455 125.273 176.441 125.286 176.441H125.341C125.341 176.441 125.354 176.427 125.368 176.427H125.409C125.409 176.427 125.422 176.414 125.436 176.414H125.45C125.45 176.414 125.477 176.4 125.49 176.4H125.531C125.531 176.4 125.545 176.387 125.558 176.387C125.572 176.387 125.586 176.387 125.599 176.373H125.626C125.626 176.373 125.64 176.373 125.64 176.359H125.681C125.681 176.359 125.708 176.346 125.722 176.346C125.749 176.332 125.776 176.332 125.817 176.319C125.817 176.305 125.858 176.305 125.885 176.291H125.926C125.926 176.291 125.953 176.278 125.966 176.264C125.98 176.264 126.007 176.251 126.034 176.251C126.062 176.237 126.089 176.223 126.116 176.223C126.116 176.223 126.125 176.219 126.143 176.21C126.143 176.21 126.17 176.196 126.184 176.196C126.211 176.183 126.238 176.169 126.266 176.155C126.293 176.155 126.306 176.142 126.32 176.142C126.334 176.142 126.347 176.128 126.361 176.128C126.374 176.128 126.388 176.115 126.388 176.115C126.402 176.115 126.415 176.101 126.415 176.101C126.429 176.101 126.429 176.087 126.442 176.087C126.456 176.087 126.47 176.074 126.483 176.074H126.51C126.51 176.074 126.538 176.047 126.551 176.047C126.578 176.033 126.592 176.033 126.606 176.019C126.633 176.019 126.646 176.006 126.66 175.992C126.66 175.992 126.687 175.992 126.701 175.992C126.714 175.992 126.714 175.979 126.728 175.979H126.742C126.742 175.979 126.769 175.951 126.782 175.951C126.796 175.951 126.823 175.951 126.837 175.924C126.837 175.924 126.837 175.911 126.864 175.911C126.864 175.911 126.878 175.897 126.891 175.897C126.905 175.883 126.918 175.883 126.946 175.87C126.946 175.87 126.959 175.87 126.959 175.856C126.986 175.843 127.014 175.829 127.027 175.829C127.054 175.815 127.068 175.802 127.095 175.788C127.122 175.775 127.136 175.761 127.163 175.747C127.177 175.747 127.19 175.734 127.204 175.734L127.245 175.693C127.245 175.693 127.272 175.693 127.286 175.679H127.299C127.299 175.679 127.34 175.652 127.354 175.639C127.381 175.611 127.408 175.598 127.435 175.584C127.449 175.584 127.463 175.571 127.463 175.571C127.49 175.557 127.503 175.543 127.517 175.53C127.544 175.516 127.558 175.516 127.571 175.503C127.585 175.489 127.599 175.489 127.599 175.475C127.626 175.462 127.639 175.462 127.653 175.448C127.68 175.435 127.694 175.421 127.707 175.407H127.735C127.735 175.407 127.775 175.353 127.803 175.339C127.816 175.339 127.83 175.326 127.843 175.312C127.857 175.299 127.884 175.285 127.898 175.271C127.911 175.271 127.925 175.271 127.939 175.244V175.231C127.952 175.231 127.966 175.217 127.966 175.217C127.993 175.19 128.007 175.176 128.034 175.163C128.047 175.163 128.047 175.149 128.061 175.149C128.075 175.135 128.102 175.122 128.115 175.095C128.129 175.095 128.143 175.081 128.156 175.067C128.17 175.054 128.183 175.04 128.197 175.04H128.211C128.211 175.04 128.279 174.972 128.306 174.945C128.319 174.945 128.319 174.931 128.333 174.931H128.347C128.347 174.931 128.356 174.922 128.374 174.904C128.374 174.904 128.387 174.904 128.387 174.891C128.387 174.891 128.401 174.891 128.401 174.877C128.428 174.85 128.455 174.836 128.496 174.809C128.51 174.782 128.537 174.768 128.551 174.755C128.564 174.755 128.564 174.741 128.564 174.741C128.578 174.741 128.578 174.727 128.591 174.714C128.605 174.7 128.632 174.687 128.646 174.659C128.659 174.659 128.659 174.659 128.673 174.659H128.687C128.687 174.659 128.714 174.619 128.727 174.605C128.741 174.591 128.755 174.578 128.782 174.564C128.782 174.55 128.795 174.537 128.809 174.537C128.823 174.523 128.836 174.496 128.85 174.482C128.877 174.455 128.904 174.428 128.931 174.401C128.931 174.401 128.94 174.396 128.959 174.387L128.972 174.374C128.999 174.346 129.027 174.319 129.054 174.292C129.067 174.278 129.067 174.265 129.081 174.251C129.108 174.238 129.122 174.21 129.149 174.197C129.149 174.183 129.163 174.17 129.176 174.156C129.19 174.156 129.19 174.142 129.203 174.129V174.115L129.244 174.074C129.244 174.074 129.299 174.006 129.339 173.979C129.353 173.952 129.367 173.925 129.394 173.911C129.407 173.884 129.421 173.87 129.435 173.857C129.435 173.857 129.448 173.83 129.448 173.816L129.53 173.734C129.53 173.734 129.584 173.666 129.611 173.639C129.625 173.612 129.652 173.585 129.679 173.558C129.679 173.544 129.679 173.53 129.707 173.517C129.707 173.503 129.72 173.49 129.734 173.476C129.761 173.449 129.788 173.394 129.815 173.367C129.843 173.326 129.87 173.299 129.897 173.258C129.911 173.258 129.924 173.218 129.951 173.204C129.979 173.163 130.006 173.109 130.033 173.068C130.06 173.027 130.087 173 130.115 172.959C130.128 172.932 130.155 172.905 130.183 172.864C130.196 172.837 130.223 172.796 130.237 172.755C130.278 172.714 130.305 172.674 130.332 172.633H130.319C130.319 172.633 130.4 172.524 130.427 172.47C130.455 172.429 130.482 172.388 130.509 172.347C130.509 172.334 130.523 172.32 130.536 172.293C130.577 172.225 130.618 172.143 130.659 172.062C130.686 172.021 130.713 171.98 130.74 171.926C130.781 171.83 130.835 171.735 130.89 171.64C130.903 171.599 130.917 171.572 130.944 171.531C130.944 171.531 130.935 171.536 130.917 171.545C130.917 171.545 130.958 171.463 130.971 171.422C130.985 171.409 130.999 171.382 130.999 171.368C131.039 171.273 131.094 171.191 131.121 171.11C131.121 171.096 131.121 171.082 131.148 171.069C131.162 170.987 131.189 170.919 131.216 170.851C131.257 170.729 131.311 170.634 131.352 170.511C131.339 170.525 131.325 170.552 131.311 170.566C131.407 170.307 131.502 170.062 131.57 169.79L137.445 146.969L138.928 141.216C138.928 141.216 138.941 141.148 138.955 141.12C139.118 140.413 139.186 139.733 139.173 139.107C139.186 139.121 139.186 139.135 139.186 139.162C139.186 139.107 139.173 139.067 139.173 139.012L139.159 138.931ZM135.963 134.524C135.963 134.524 135.976 134.524 135.99 134.524H135.963Z" fill="url(#paint11_linear_875_7589)"/>
<path d="M80.0185 7.8339C79.1217 5.01357 76.1113 3.45335 73.2945 4.34904C70.4778 5.24473 68.9214 8.25715 69.8182 11.0775L77.2533 34.4592C78.1501 37.2795 81.1605 38.8397 83.9773 37.9441C86.794 37.0484 88.3504 34.0359 87.4536 31.2156L80.0185 7.8339Z" fill="url(#paint12_linear_875_7589)"/>
<path d="M15.8887 75.6106C12.962 75.1712 10.2337 77.1844 9.79474 80.1074C9.35582 83.0303 11.3725 85.7561 14.2992 86.1956L38.5625 89.8391C41.4892 90.2786 44.2176 88.2653 44.6565 85.3424C45.0954 82.4194 43.0787 79.6936 40.152 79.2541L15.8887 75.6106Z" fill="url(#paint13_linear_875_7589)"/>
<path d="M28.3981 25.729C26.1379 23.8184 22.7589 24.0994 20.8507 26.3566C18.9425 28.6139 19.2278 31.9926 21.4879 33.9032L47.3399 55.7576C49.6 57.6682 52.9791 57.3872 54.8873 55.13C56.7955 52.8727 56.5102 49.494 54.2501 47.5834L28.3981 25.729Z" fill="url(#paint14_linear_875_7589)"/>
<rect x="167" y="9" width="24" height="24" rx="3" fill="url(#paint15_linear_875_7589)"/>
<rect x="173" y="165" width="24" height="24" rx="3" fill="url(#paint16_linear_875_7589)"/>
</g>
<defs>
<linearGradient id="paint0_linear_875_7589" x1="73.3333" y1="43.1384" x2="89.7134" y2="156.049" gradientUnits="userSpaceOnUse">
<stop stop-color="#FEB03C"/>
<stop offset="1" stop-color="#FE3C3C" stop-opacity="0.1"/>
</linearGradient>
<linearGradient id="paint1_linear_875_7589" x1="155" y1="103" x2="117.712" y2="155.305" gradientUnits="userSpaceOnUse">
<stop stop-color="#F9BD2F"/>
<stop offset="1" stop-color="#FC1F02"/>
</linearGradient>
<linearGradient id="paint2_linear_875_7589" x1="147.258" y1="65.6781" x2="139.16" y2="101.892" gradientUnits="userSpaceOnUse">
<stop stop-color="#FC1F02"/>
<stop offset="1" stop-color="#F9BD2F"/>
</linearGradient>
<linearGradient id="paint3_linear_875_7589" x1="93.7059" y1="36.3176" x2="93.7059" y2="126.483" gradientUnits="userSpaceOnUse">
<stop stop-color="#FC1F02"/>
<stop offset="1" stop-color="#F9BD2F"/>
</linearGradient>
<linearGradient id="paint4_linear_875_7589" x1="92.5908" y1="47.7556" x2="86.1627" y2="79.0131" gradientUnits="userSpaceOnUse">
<stop stop-color="#FC1F02"/>
<stop offset="1" stop-color="#F9BD2F"/>
</linearGradient>
<linearGradient id="paint5_linear_875_7589" x1="103.485" y1="74.3551" x2="103.485" y2="105.473" gradientUnits="userSpaceOnUse">
<stop stop-color="#FC1F02"/>
<stop offset="1" stop-color="#F9BD2F"/>
</linearGradient>
<linearGradient id="paint6_linear_875_7589" x1="98.0803" y1="73.1318" x2="98.0803" y2="98.4532" gradientUnits="userSpaceOnUse">
<stop stop-color="#FC1F02"/>
<stop offset="1" stop-color="#F9BD2F"/>
</linearGradient>
<linearGradient id="paint7_linear_875_7589" x1="106.389" y1="40.6938" x2="134.71" y2="116.935" gradientUnits="userSpaceOnUse">
<stop stop-color="#FC1F02"/>
<stop offset="1" stop-color="#F9BD2F"/>
</linearGradient>
<linearGradient id="paint8_linear_875_7589" x1="138.22" y1="135.707" x2="138.22" y2="135.721" gradientUnits="userSpaceOnUse">
<stop stop-color="#FC1F02"/>
<stop offset="1" stop-color="#F9BD2F"/>
</linearGradient>
<linearGradient id="paint9_linear_875_7589" x1="135.976" y1="134.524" x2="135.976" y2="134.551" gradientUnits="userSpaceOnUse">
<stop stop-color="#FC1F02"/>
<stop offset="1" stop-color="#F9BD2F"/>
</linearGradient>
<linearGradient id="paint10_linear_875_7589" x1="130.373" y1="134.13" x2="130.373" y2="177.543" gradientUnits="userSpaceOnUse">
<stop stop-color="#FC1F02"/>
<stop offset="1" stop-color="#F9BD2F"/>
</linearGradient>
<linearGradient id="paint11_linear_875_7589" x1="129.197" y1="134.17" x2="129.197" y2="176.525" gradientUnits="userSpaceOnUse">
<stop stop-color="#FC1F02"/>
<stop offset="1" stop-color="#F9BD2F"/>
</linearGradient>
<linearGradient id="paint12_linear_875_7589" x1="73.2945" y1="4.34904" x2="69.7603" y2="18.9018" gradientUnits="userSpaceOnUse">
<stop offset="0.33998" stop-color="#FC1F02" stop-opacity="0"/>
<stop offset="1" stop-color="#F9BD2F"/>
</linearGradient>
<linearGradient id="paint13_linear_875_7589" x1="9.79474" y1="80.1074" x2="21.2953" y2="89.6996" gradientUnits="userSpaceOnUse">
<stop offset="0.33998" stop-color="#FC1F02" stop-opacity="0"/>
<stop offset="1" stop-color="#F9BD2F"/>
</linearGradient>
<linearGradient id="paint14_linear_875_7589" x1="20.8507" y1="26.3566" x2="24.5788" y2="43.5251" gradientUnits="userSpaceOnUse">
<stop offset="0.33998" stop-color="#FC1F02" stop-opacity="0"/>
<stop offset="1" stop-color="#F9BD2F"/>
</linearGradient>
<linearGradient id="paint15_linear_875_7589" x1="175.701" y1="8.20106" x2="209.573" y2="81.7426" gradientUnits="userSpaceOnUse">
<stop stop-color="#FEB03C"/>
<stop offset="1" stop-color="#FE3C3C" stop-opacity="0.1"/>
</linearGradient>
<linearGradient id="paint16_linear_875_7589" x1="150" y1="96.5" x2="193.327" y2="183.086" gradientUnits="userSpaceOnUse">
<stop stop-color="#FEB03C"/>
<stop offset="1" stop-color="#FE3C3C" stop-opacity="0.1"/>
</linearGradient>
<clipPath id="clip0_875_7589">
<rect width="200" height="200" fill="white" transform="translate(0.125)"/>
</clipPath>
</defs>
</svg>
