<svg width="201" height="200" viewBox="0 0 201 200" fill="none" xmlns="http://www.w3.org/2000/svg">
<path fill-rule="evenodd" clip-rule="evenodd" d="M197 49.9999C197 48.3431 195.657 46.9999 194 46.9999H30C28.3431 46.9999 27 48.3431 27 49.9999V66.9999C27 68.6568 28.3431 69.9999 30 69.9999H47C48.6569 69.9999 50 71.3431 50 72.9999V90.9999C50 92.6568 48.6569 93.9999 47 93.9999H29C27.3431 93.9999 26 92.6568 26 90.9999V73.9999C26 72.3431 24.6569 70.9999 23 70.9999H6C4.34315 70.9999 3 72.3431 3 73.9999V160C3 161.657 4.34314 163 6 163H146C147.657 163 149 161.657 149 160V142C149 140.343 150.343 139 152 139H170C171.657 139 173 137.657 173 136V118C173 116.343 174.343 115 176 115H194C195.657 115 197 113.657 197 112V49.9999Z" fill="url(#paint0_linear_875_7565)"/>
<g clip-path="url(#clip0_875_7565)">
<path d="M100.984 11L99.8038 15.0336V132.069L100.984 133.253L154.967 101.141L100.984 11Z" fill="url(#paint1_linear_875_7565)"/>
<path d="M100.984 11L47 101.141L100.984 133.253V76.4478V11Z" fill="url(#paint2_linear_875_7565)"/>
<path d="M100.983 143.539L100.318 144.355V186.045L100.983 187.999L154.999 111.444L100.983 143.539Z" fill="url(#paint3_linear_875_7565)"/>
<path d="M100.984 187.999V143.539L47 111.443L100.984 187.999Z" fill="url(#paint4_linear_875_7565)"/>
<path d="M100.984 133.253L154.967 101.141L100.984 76.4478V133.253Z" fill="url(#paint5_linear_875_7565)"/>
<path d="M47 101.141L100.984 133.253V76.4478L47 101.141Z" fill="url(#paint6_linear_875_7565)"/>
</g>
<rect x="3" y="23" width="24" height="24" rx="3" fill="url(#paint7_linear_875_7565)"/>
<rect x="158" y="4" width="24" height="24" rx="3" fill="url(#paint8_linear_875_7565)"/>
<rect x="165" y="171" width="24" height="24" rx="3" fill="url(#paint9_linear_875_7565)"/>
<defs>
<linearGradient id="paint0_linear_875_7565" x1="73.3333" y1="43.1384" x2="89.7134" y2="156.049" gradientUnits="userSpaceOnUse">
<stop stop-color="#FEB03C"/>
<stop offset="1" stop-color="#FE3C3C" stop-opacity="0.1"/>
</linearGradient>
<linearGradient id="paint1_linear_875_7565" x1="127.385" y1="11" x2="106.091" y2="63.0661" gradientUnits="userSpaceOnUse">
<stop stop-color="#FC1F02"/>
<stop offset="1" stop-color="#F9BD2F"/>
</linearGradient>
<linearGradient id="paint2_linear_875_7565" x1="73.9921" y1="11" x2="73.9921" y2="133.253" gradientUnits="userSpaceOnUse">
<stop stop-color="#FC1F02"/>
<stop offset="1" stop-color="#F9BD2F"/>
</linearGradient>
<linearGradient id="paint3_linear_875_7565" x1="177.95" y1="78.6231" x2="104.357" y2="160.601" gradientUnits="userSpaceOnUse">
<stop stop-color="#FC1F02"/>
<stop offset="1" stop-color="#F9BD2F"/>
</linearGradient>
<linearGradient id="paint4_linear_875_7565" x1="73.9921" y1="111.443" x2="73.9921" y2="187.999" gradientUnits="userSpaceOnUse">
<stop stop-color="#FC1F02"/>
<stop offset="1" stop-color="#F9BD2F"/>
</linearGradient>
<linearGradient id="paint5_linear_875_7565" x1="110.45" y1="126.731" x2="174.502" y2="55.5647" gradientUnits="userSpaceOnUse">
<stop stop-color="#FC1F02"/>
<stop offset="1" stop-color="#F9BD2F"/>
</linearGradient>
<linearGradient id="paint6_linear_875_7565" x1="73.9921" y1="76.4478" x2="73.9921" y2="133.253" gradientUnits="userSpaceOnUse">
<stop stop-color="#FC1F02"/>
<stop offset="1" stop-color="#F9BD2F"/>
</linearGradient>
<linearGradient id="paint7_linear_875_7565" x1="11.701" y1="22.2011" x2="45.5725" y2="95.7426" gradientUnits="userSpaceOnUse">
<stop stop-color="#FEB03C"/>
<stop offset="1" stop-color="#FE3C3C" stop-opacity="0.1"/>
</linearGradient>
<linearGradient id="paint8_linear_875_7565" x1="166.701" y1="3.20106" x2="200.573" y2="76.7426" gradientUnits="userSpaceOnUse">
<stop stop-color="#FEB03C"/>
<stop offset="1" stop-color="#FE3C3C" stop-opacity="0.1"/>
</linearGradient>
<linearGradient id="paint9_linear_875_7565" x1="142" y1="102.5" x2="185.327" y2="189.086" gradientUnits="userSpaceOnUse">
<stop stop-color="#FEB03C"/>
<stop offset="1" stop-color="#FE3C3C" stop-opacity="0.1"/>
</linearGradient>
<clipPath id="clip0_875_7565">
<rect width="108" height="177" fill="white" transform="translate(47 11)"/>
</clipPath>
</defs>
</svg>
